<svg width="224" height="89" viewBox="0 0 224 89" fill="none" xmlns="http://www.w3.org/2000/svg">
<path opacity="0.05" d="M108.615 4.79877L97.5403 18.1325C96.0211 19.9616 96.9835 22.7499 99.3074 23.2525L117.27 27.1374C119.751 27.6739 121.823 25.2212 120.881 22.8647L113.993 5.64614C113.101 3.41648 110.149 2.95153 108.615 4.79877Z" fill="#263238"/>
<path d="M112.435 1.44165L102.082 16.4742C100.672 18.5219 101.921 21.3367 104.386 21.6646L123.417 24.1974C126.059 24.549 128.023 21.8099 126.842 19.4207L118.164 1.85535C117.038 -0.423497 113.877 -0.651961 112.435 1.44165Z" fill="#FFD863"/>
<path d="M104.838 20.3171C104.145 20.2251 103.544 19.7885 103.228 19.1498C102.913 18.511 102.949 17.8034 103.325 17.2565L113.705 2.18608C114.081 1.63963 114.719 1.36815 115.411 1.46015C116.103 1.55236 116.705 1.9887 117.02 2.62736L125.72 20.237C126.036 20.8759 126 21.5835 125.623 22.1303C125.247 22.6768 124.609 22.9483 123.917 22.8563L104.838 20.3171Z" fill="#FFD863"/>
<path d="M114.527 6.78746L115.739 6.94883C116.519 7.05256 117.119 7.76161 117.079 8.53241L116.998 10.1135C116.995 10.1716 116.988 10.229 116.978 10.2854L116.116 15.0501C115.991 15.7368 115.364 16.1809 114.652 16.0863C113.939 15.9914 113.365 15.385 113.314 14.6733L112.964 9.74923C112.96 9.69221 112.96 9.6352 112.963 9.5786L113.044 7.99563C113.084 7.22463 113.748 6.68373 114.527 6.78746ZM114.431 17.3996L114.761 17.4436C115.458 17.5365 115.995 18.1706 115.959 18.8601C115.924 19.5496 115.33 20.0333 114.633 19.9407L114.302 19.8966C113.605 19.8038 113.068 19.1697 113.104 18.4802C113.139 17.7907 113.733 17.3068 114.431 17.3996Z" fill="#515151"/>
<path fill-rule="evenodd" clip-rule="evenodd" d="M5.76677 42.5363C15.5731 63.2006 25.3766 60.9735 38.5713 61.0504L38.7173 61.0512L38.6967 66.2576L38.5508 66.2567C24.0095 66.1719 12.226 68.3874 1.0143 44.7617C-0.0895048 41.671 4.0114 39.7201 5.76677 42.5363Z" fill="#DCDCDC"/>
<mask id="mask0_11_4619" style="mask-type:luminance" maskUnits="userSpaceOnUse" x="38" y="41" width="45" height="45">
<path d="M60.2408 41.7655H82.3553V85.6584H60.2408C48.0778 85.6584 38.1263 75.7826 38.1263 63.712V63.7119C38.1263 51.6415 48.0778 41.7655 60.2408 41.7655Z" fill="white"/>
</mask>
<g mask="url(#mask0_11_4619)">
<path d="M82.3554 41.7655H38.1263V85.6583H82.3554V41.7655Z" fill="#EDEDED"/>
</g>
<path fill-rule="evenodd" clip-rule="evenodd" d="M66.1056 88.212C61.5607 88.212 57.8763 77.243 57.8763 63.712C57.8763 50.181 61.5607 39.212 66.1056 39.212H82.564V88.212H66.1056Z" fill="#DCDCDC"/>
<mask id="mask1_11_4619" style="mask-type:luminance" maskUnits="userSpaceOnUse" x="74" y="39" width="17" height="50">
<path d="M82.5642 39.212C87.1091 39.212 90.7934 50.181 90.7934 63.712C90.7934 77.2429 87.1091 88.212 82.5642 88.212C78.0193 88.212 74.335 77.243 74.335 63.712C74.335 50.181 78.0193 39.212 82.5642 39.212Z" fill="white"/>
</mask>
<g mask="url(#mask1_11_4619)">
<path d="M90.7934 39.212H74.335V88.212H90.7934V39.212Z" fill="#EDEDED"/>
</g>
<path fill-rule="evenodd" clip-rule="evenodd" d="M81.9712 51.0672H103.291C104.681 51.0672 105.817 52.5568 105.817 54.3774C105.817 56.198 104.681 57.6875 103.291 57.6875H81.9712C80.6945 57.6875 80.5728 51.0672 81.9712 51.0672Z" fill="#CCCCCC"/>
<path fill-rule="evenodd" clip-rule="evenodd" d="M81.9712 69.7363H103.291C104.681 69.7363 105.817 71.2259 105.817 73.0465C105.817 74.8671 104.681 76.3566 103.291 76.3566H81.9712C80.6945 76.3566 80.5728 69.7363 81.9712 69.7363Z" fill="#CCCCCC"/>
<path fill-rule="evenodd" clip-rule="evenodd" d="M66.607 40.9986H73.3325C74.0921 40.9986 74.7136 41.6154 74.7136 42.3693C74.7136 43.1232 74.0921 43.7401 73.3325 43.7401H66.607C65.8473 43.7401 65.2258 43.1232 65.2258 42.3694C65.2258 41.6156 65.8473 40.9986 66.607 40.9986Z" fill="#EFEFEF"/>
<path fill-rule="evenodd" clip-rule="evenodd" d="M218.078 43.0548C208.272 63.7192 196.495 60.9736 183.3 61.0504L183.154 61.0512L183.174 66.2576L183.32 66.2567C197.862 66.1719 211.619 68.906 222.831 45.2803C224.406 41.8563 220.119 39.2788 218.078 43.0548Z" fill="#DCDCDC"/>
<mask id="mask2_11_4619" style="mask-type:luminance" maskUnits="userSpaceOnUse" x="139" y="41" width="45" height="45">
<path d="M161.37 41.7655H139.255V85.6584H161.37C173.533 85.6584 183.484 75.7826 183.484 63.712V63.7119C183.484 51.6415 173.533 41.7655 161.37 41.7655Z" fill="white"/>
</mask>
<g mask="url(#mask2_11_4619)">
<path d="M183.484 41.7655H139.255V85.6583H183.484V41.7655Z" fill="#EDEDED"/>
</g>
<path fill-rule="evenodd" clip-rule="evenodd" d="M155.505 88.212C160.05 88.212 163.734 77.243 163.734 63.712C163.734 50.181 160.05 39.212 155.505 39.212H139.046V88.212H155.505Z" fill="#DCDCDC"/>
<mask id="mask3_11_4619" style="mask-type:luminance" maskUnits="userSpaceOnUse" x="130" y="39" width="18" height="50">
<path d="M139.046 39.212C134.501 39.212 130.817 50.181 130.817 63.712C130.817 77.2429 134.501 88.212 139.046 88.212C143.591 88.212 147.276 77.243 147.276 63.712C147.276 50.181 143.591 39.212 139.046 39.212Z" fill="white"/>
</mask>
<g mask="url(#mask3_11_4619)">
<path d="M147.276 39.212H130.817V88.212H147.276V39.212Z" fill="#EDEDED"/>
</g>
<path fill-rule="evenodd" clip-rule="evenodd" d="M138.237 50.2971C139.106 50.2971 139.81 52.1334 139.81 54.3987C139.81 56.6639 139.106 58.5003 138.237 58.5003C137.369 58.5003 136.665 56.6639 136.665 54.3987C136.665 52.1334 137.369 50.2971 138.237 50.2971Z" fill="#CCCCCC"/>
<path fill-rule="evenodd" clip-rule="evenodd" d="M138.237 68.9095C139.106 68.9095 139.81 70.7459 139.81 73.0111C139.81 75.2764 139.106 77.1127 138.237 77.1127C137.369 77.1127 136.665 75.2764 136.665 73.0111C136.665 70.7459 137.369 68.9095 138.237 68.9095Z" fill="#CCCCCC"/>
<path fill-rule="evenodd" clip-rule="evenodd" d="M147.836 40.9986H154.561C155.321 40.9986 155.942 41.6154 155.942 42.3693C155.942 43.1232 155.321 43.7401 154.561 43.7401H147.836C147.076 43.7401 146.455 43.1232 146.455 42.3694C146.454 41.6156 147.076 40.9986 147.836 40.9986Z" fill="#EFEFEF"/>
</svg>
