<svg width="16" height="17" viewBox="0 0 16 17" fill="none" xmlns="http://www.w3.org/2000/svg">
<g id="chat_5320914 1" clip-path="url(#clip0_16_1252)">
<g id="Group">
<path id="Vector" d="M4.06349 7.08338L3.7345 7.7493C3.61981 7.98145 3.3386 8.0766 3.10664 7.96195C2.87452 7.84729 2.77931 7.56618 2.89399 7.33409L4.74653 3.58419C4.91731 3.23851 5.41114 3.23595 5.58517 3.58047L6.82385 6.03266C7.79279 5.30836 8.97498 4.85444 10.2578 4.7845C9.83811 2.35457 7.71505 0.500244 5.16668 0.500244C2.31801 0.500244 0.000256313 2.81799 0.000256313 5.66667C0.000256313 6.94569 0.476806 8.17597 1.32397 9.11938L0.184001 9.99249C-0.171395 10.2649 0.0229432 10.8334 0.468993 10.8334H4.28108C4.34161 9.41313 4.87234 8.11244 5.72119 7.08341H4.06349V7.08338Z" fill="#515151"/>
<path id="Vector_2" d="M4.52661 6.14588H5.83079L5.17144 4.84058L4.52661 6.14588Z" fill="#515151"/>
<path id="Vector_3" d="M15.816 15.6589L14.6015 14.7288C15.4959 13.7415 15.9998 12.4494 15.9998 11.1062C15.9998 8.13221 13.5802 5.71265 10.6062 5.71265C7.63221 5.71265 5.21265 8.13221 5.21265 11.1062C5.21265 14.1224 7.66742 16.4998 10.5925 16.4998H15.531C15.9779 16.4998 16.1708 15.9306 15.816 15.6589ZM12.4749 12.5124C12.7338 12.5124 12.9437 12.7223 12.9437 12.9812C12.9437 13.24 12.7338 13.4499 12.4749 13.4499C12.3408 13.4332 11.5149 13.5565 10.6031 12.9749C9.69974 13.5511 8.85564 13.4344 8.73127 13.4499C8.4724 13.4499 8.26253 13.24 8.26253 12.9812C8.26253 12.7223 8.4724 12.5124 8.73127 12.5124C8.87336 12.5006 9.31766 12.5709 9.86486 12.3133C9.48769 11.8449 9.24644 11.2627 9.20151 10.627H8.73127C8.4724 10.627 8.26253 10.4171 8.26253 10.1583C8.26253 9.89941 8.4724 9.68954 8.73127 9.68954H10.1343V9.23127C10.1343 8.9724 10.3442 8.76253 10.6031 8.76253C10.8619 8.76253 11.0718 8.9724 11.0718 9.23127V9.68954H12.4812C12.74 9.68954 12.9499 9.89941 12.9499 10.1583C12.9499 10.4171 12.74 10.627 12.4812 10.627H12.0046C11.9597 11.2627 11.7185 11.8449 11.3413 12.3133C11.8877 12.5705 12.3326 12.5006 12.4749 12.5124Z" fill="#515151"/>
<path id="Vector_4" d="M10.6031 11.7359C10.855 11.4266 11.021 11.0449 11.0639 10.627H10.1423C10.1853 11.0449 10.3513 11.4266 10.6031 11.7359Z" fill="#515151"/>
</g>
</g>
<defs>
<clipPath id="clip0_16_1252">
<rect width="16" height="16" fill="white" transform="translate(0 0.5)"/>
</clipPath>
</defs>
</svg>
