<svg width="16" height="19" viewBox="0 0 16 19" fill="none" xmlns="http://www.w3.org/2000/svg">
<path id="Vector" d="M15.2694 1.93177L8.26998 0.0352187C8.0934 -0.0117396 7.9066 -0.0117396 7.73002 0.0352187L0.73062 1.93177C0.514337 1.98913 0.324713 2.11387 0.192297 2.2859C0.0598814 2.45792 -0.0076148 2.66721 0.000683137 2.88005V7.98178C-0.0012269 10.3123 0.718987 12.5919 2.07183 14.5375C3.42468 16.483 5.35051 18.0087 7.61003 18.9249C7.73341 18.9745 7.86602 19 8 19C8.13398 19 8.26659 18.9745 8.38997 18.9249C10.6495 18.0087 12.5753 16.483 13.9282 14.5375C15.281 12.5919 16.0012 10.3123 15.9993 7.98178V2.88005C16.0076 2.66721 15.9401 2.45792 15.8077 2.2859C15.6753 2.11387 15.4857 1.98913 15.2694 1.93177ZM7.82002 10.8551C7.72741 10.9447 7.61697 11.016 7.49511 11.0648C7.37324 11.1136 7.24237 11.139 7.11008 11.1395C6.9761 11.1403 6.84333 11.1155 6.71965 11.0666C6.59598 11.0178 6.48392 10.9458 6.39014 10.8551L4.78028 9.28093C4.68656 9.19277 4.61217 9.08789 4.5614 8.97233C4.51064 8.85678 4.4845 8.73283 4.4845 8.60765C4.4845 8.48247 4.51064 8.35852 4.5614 8.24296C4.61217 8.12741 4.68656 8.02253 4.78028 7.93437C4.87323 7.84549 4.98382 7.77494 5.10567 7.7268C5.22752 7.67866 5.35821 7.65387 5.49021 7.65387C5.62222 7.65387 5.75291 7.67866 5.87476 7.7268C5.99661 7.77494 6.1072 7.84549 6.20015 7.93437L7.09008 8.7973L9.75985 6.18006C9.85281 6.09118 9.9634 6.02063 10.0852 5.97249C10.2071 5.92435 10.3378 5.89956 10.4698 5.89956C10.6018 5.89956 10.7325 5.92435 10.8543 5.97249C10.9762 6.02063 11.0868 6.09118 11.1797 6.18006C11.2734 6.26821 11.3478 6.37309 11.3986 6.48865C11.4494 6.60421 11.4755 6.72815 11.4755 6.85334C11.4755 6.97852 11.4494 7.10247 11.3986 7.21802C11.3478 7.33358 11.2734 7.43846 11.1797 7.52661L7.82002 10.8551Z" fill="#60AC71"/>
</svg>
