<svg width="100" height="99" viewBox="0 0 100 99" fill="none" xmlns="http://www.w3.org/2000/svg">
<g id="Group">
<g id="Group_2">
<g id="Group_3">
<path id="Vector" d="M49.8593 0C77.1232 0 99.2593 22.1361 99.2593 49.4C99.2593 76.6639 77.1232 98.8 49.8593 98.8C22.5955 98.8 0.459351 76.6639 0.459351 49.4C0.459351 22.1361 22.5955 0 49.8593 0Z" fill="#6E4CE3"/>
</g>
</g>
<g id="Group_4">
<g id="Group_5">
<g id="Vector_2">
<path d="M49.8601 31.376V47.6248V31.376ZM60.4841 37.5248C60.4841 37.5248 65.4841 40.7696 65.4841 49.4C65.4841 53.5432 63.8385 57.5184 60.9081 60.4488C57.9777 63.3792 54.0033 65.0256 49.8601 65.0256C45.7161 65.0256 41.7409 63.3792 38.8105 60.4488C35.8801 57.5184 34.2345 53.5432 34.2345 49.4C34.2345 40.7696 39.2345 37.5248 39.2345 37.5248" fill="#6E4CE3"/>
<path d="M49.8601 31.376V47.6248M60.4841 37.5248C60.4841 37.5248 65.4841 40.7696 65.4841 49.4C65.4841 53.5432 63.8385 57.5184 60.9081 60.4488C57.9777 63.3792 54.0033 65.0256 49.8601 65.0256C45.7161 65.0256 41.7409 63.3792 38.8105 60.4488C35.8801 57.5184 34.2345 53.5432 34.2345 49.4C34.2345 40.7696 39.2345 37.5248 39.2345 37.5248" stroke="white" stroke-width="3.6" stroke-linecap="round" stroke-linejoin="round"/>
</g>
</g>
</g>
</g>
</svg>
