<svg width="12" height="13" viewBox="0 0 12 13" fill="none" xmlns="http://www.w3.org/2000/svg">
<g id="copy" clip-path="url(#clip0_2362_44453)">
<path id="Vector" d="M8.175 3.125H1.575C0.912258 3.125 0.375 3.66226 0.375 4.325V10.925C0.375 11.5877 0.912258 12.125 1.575 12.125H8.175C8.83774 12.125 9.375 11.5877 9.375 10.925V4.325C9.375 3.66226 8.83774 3.125 8.175 3.125Z" fill="#515151"/>
<path id="Vector_2" d="M10.425 0.875H3.825C3.50704 0.875989 3.20239 1.00273 2.97756 1.22756C2.75273 1.45239 2.62599 1.75704 2.625 2.075V2.75H8.44875C8.79356 2.75099 9.12396 2.8884 9.36778 3.13222C9.6116 3.37604 9.74901 3.70644 9.75 4.05125V9.875H10.425C10.743 9.87401 11.0476 9.74726 11.2724 9.52244C11.4973 9.29761 11.624 8.99296 11.625 8.675V2.075C11.624 1.75704 11.4973 1.45239 11.2724 1.22756C11.0476 1.00273 10.743 0.875989 10.425 0.875Z" fill="#515151"/>
</g>
<defs>
<clipPath id="clip0_2362_44453">
<rect width="12" height="12" fill="white" transform="translate(0 0.5)"/>
</clipPath>
</defs>
</svg>
