<svg width="99" height="99" viewBox="0 0 99 99" fill="none" xmlns="http://www.w3.org/2000/svg">
<path d="M49.5 0C76.7638 0 98.9 22.1361 98.9 49.4C98.9 76.6639 76.7638 98.8 49.5 98.8C22.2361 98.8 0.0999756 76.6639 0.0999756 49.4C0.0999756 22.1361 22.2361 0 49.5 0Z" fill="#67C974"/>
<path d="M64.1669 41.4475C64.0331 41.1193 63.8825 40.7983 63.7156 40.4856C63.7156 40.4856 63.7156 40.4856 63.7156 40.4262C62.379 37.6993 60.316 35.394 57.7536 33.764C55.1913 32.1339 52.2289 31.2424 49.1925 31.1875H48.8125C45.7125 31.1913 42.6753 32.0618 40.044 33.7006C37.4126 35.3395 35.2919 37.6814 33.9212 40.4619C32.7925 42.733 32.2051 45.2348 32.2051 47.7709C32.2051 50.3071 32.7925 52.8088 33.9212 55.08C35.2802 57.876 37.3959 60.235 40.0282 61.8891C42.6604 63.5432 45.7037 64.4261 48.8125 64.4375H49.8812C50.0372 64.425 50.1891 64.382 50.3284 64.3108C50.4677 64.2395 50.5917 64.1416 50.6931 64.0225C50.7945 63.9034 50.8715 63.7655 50.9197 63.6167C50.9678 63.4678 50.9862 63.3109 50.9737 63.155C50.9613 62.9991 50.9182 62.8471 50.847 62.7078C50.7758 62.5685 50.6778 62.4446 50.5588 62.3431C50.4397 62.2417 50.3018 62.1647 50.1529 62.1165C50.0041 62.0684 49.8472 62.05 49.6912 62.0625C49.4142 62.0625 49.1292 62.0625 48.8362 62.0625C47.0787 62.0625 45.2737 59.6281 44.2169 55.8638H46.5919C46.9068 55.8638 47.2089 55.7386 47.4316 55.5159C47.6543 55.2932 47.7794 54.9912 47.7794 54.6763C47.7794 54.3613 47.6543 54.0593 47.4316 53.8366C47.2089 53.6139 46.9068 53.4888 46.5919 53.4888H43.6469C42.966 49.7352 42.966 45.8898 43.6469 42.1363H54.0969C54.2188 42.315 54.3872 42.457 54.5839 42.547C54.7806 42.637 54.9982 42.6715 55.2131 42.6469C55.3778 42.6239 55.5359 42.5666 55.677 42.4786C55.8182 42.3906 55.9393 42.274 56.0325 42.1363H61.875C61.875 42.1363 61.875 42.2194 61.875 42.2669C61.927 42.5818 62.1019 42.8632 62.3613 43.0492C62.6208 43.2351 62.9435 43.3104 63.2584 43.2584C63.5734 43.2065 63.8548 43.0315 64.0407 42.7721C64.2267 42.5126 64.302 42.1899 64.25 41.875C64.2489 41.7286 64.2207 41.5837 64.1669 41.4475ZM60.6044 39.7613H55.9375C55.4938 37.8727 54.7479 36.0682 53.7287 34.4175C56.5085 35.4392 58.897 37.3085 60.5569 39.7613H60.6044ZM48.8125 33.5625H49.0025C50.6887 33.7406 52.375 36.1513 53.42 39.7613H44.1931C45.25 35.9969 47.055 33.5625 48.8125 33.5625ZM43.9319 34.4413C42.902 36.0821 42.1441 37.8786 41.6875 39.7613H37.0681C38.7508 37.3208 41.1489 35.4621 43.9319 34.4413ZM43.9319 61.1719C41.1522 60.1569 38.7574 58.3017 37.08 55.8638H41.6875C42.1486 57.7393 42.9019 59.5306 43.92 61.1719H43.9319ZM41.2244 53.4888H35.75C34.9665 51.6989 34.562 49.7663 34.562 47.8125C34.562 45.8587 34.9665 43.9261 35.75 42.1363H41.2244C40.6069 45.8952 40.6069 49.7298 41.2244 53.4888Z" fill="white"/>
<path d="M66.9456 45.4375L58.6331 43.0625C58.4234 43.0037 58.2016 43.0037 57.9919 43.0625L49.6794 45.4375C49.4225 45.5093 49.1973 45.6655 49.0401 45.881C48.8828 46.0964 48.8027 46.3585 48.8125 46.625V53.0138C48.8102 55.9322 49.6656 58.7869 51.2722 61.2233C52.8789 63.6596 55.166 65.5702 57.8494 66.7175C57.9959 66.7796 58.1534 66.8115 58.3125 66.8115C58.4716 66.8115 58.6291 66.7796 58.7756 66.7175C61.4591 65.5702 63.7462 63.6596 65.3528 61.2233C66.9595 58.7869 67.8148 55.9322 67.8125 53.0138V46.625C67.8224 46.3585 67.7422 46.0964 67.585 45.881C67.4277 45.6655 67.2025 45.5093 66.9456 45.4375ZM58.0988 56.6119C57.9888 56.7241 57.8576 56.8133 57.7129 56.8745C57.5682 56.9357 57.4128 56.9675 57.2556 56.9681C57.0965 56.9691 56.9389 56.938 56.792 56.8768C56.6451 56.8156 56.512 56.7255 56.4006 56.6119L54.4888 54.6406C54.3775 54.5302 54.2891 54.3989 54.2288 54.2542C54.1685 54.1095 54.1375 53.9543 54.1375 53.7975C54.1375 53.6407 54.1685 53.4855 54.2288 53.3408C54.2891 53.1961 54.3775 53.0648 54.4888 52.9544C54.5992 52.8431 54.7305 52.7547 54.8752 52.6944C55.0199 52.6342 55.1751 52.6031 55.3319 52.6031C55.4887 52.6031 55.6439 52.6342 55.7886 52.6944C55.9333 52.7547 56.0646 52.8431 56.175 52.9544L57.2319 54.035L60.4025 50.7575C60.5129 50.6462 60.6442 50.5579 60.789 50.4976C60.9337 50.4373 61.0889 50.4062 61.2456 50.4062C61.4024 50.4062 61.5576 50.4373 61.7023 50.4976C61.847 50.5579 61.9784 50.6462 62.0888 50.7575C62.2001 50.8679 62.2884 50.9992 62.3487 51.1439C62.409 51.2887 62.44 51.4439 62.44 51.6006C62.44 51.7574 62.409 51.9126 62.3487 52.0573C62.2884 52.202 62.2001 52.3334 62.0888 52.4438L58.0988 56.6119Z" fill="white"/>
</svg>
