<svg width="16" height="17" viewBox="0 0 16 17" fill="none" xmlns="http://www.w3.org/2000/svg">
<g id="Frame 14" clip-path="url(#clip0_16_1262)">
<g id="icon:premium">
<g id="Group">
<g id="Group_2">
<path id="Vector" d="M13.8679 10.0168C13.8678 10.0159 13.8678 10.015 13.8677 10.0141C13.404 6.92746 10.5978 5.37358 10.5978 5.37358C10.621 5.54019 10.6222 5.92434 10.5357 6.2773C10.5298 6.30097 10.5235 6.32454 10.517 6.34798C10.5162 6.35056 10.5155 6.35326 10.5146 6.35584C10.5087 6.37659 10.5023 6.39724 10.4958 6.41754C10.4944 6.42181 10.493 6.42596 10.4915 6.43011C10.4853 6.44862 10.4788 6.46691 10.472 6.48497C10.4699 6.49047 10.4678 6.49597 10.4655 6.50146C10.4591 6.51796 10.4524 6.53434 10.4455 6.55038C10.4428 6.55666 10.4399 6.56272 10.4371 6.56889C10.4303 6.58381 10.4234 6.59863 10.4162 6.6131C10.4128 6.61983 10.4093 6.62645 10.4057 6.63307C10.3986 6.64653 10.3914 6.65977 10.3838 6.67267C10.3798 6.67963 10.3756 6.68647 10.3713 6.6932C10.3638 6.70532 10.3562 6.71721 10.3483 6.72877C10.3435 6.73561 10.3387 6.74246 10.3339 6.74907C10.326 6.75996 10.3179 6.77039 10.3096 6.78071C10.3042 6.78733 10.2988 6.79406 10.2933 6.80046C10.285 6.81011 10.2762 6.81931 10.2675 6.8284C10.2615 6.83468 10.2555 6.84085 10.2492 6.8468C10.2404 6.85532 10.231 6.86329 10.2217 6.87114C10.2151 6.87675 10.2084 6.88248 10.2018 6.88775C10.1922 6.89504 10.1824 6.90177 10.1725 6.9085C10.1652 6.91344 10.1582 6.91849 10.1505 6.92309C10.1405 6.92926 10.1298 6.93476 10.1193 6.94014C10.1114 6.94418 10.1039 6.94844 10.0957 6.95215C10.0846 6.95708 10.0731 6.96135 10.0616 6.9655C10.0534 6.96853 10.0454 6.972 10.0369 6.97459C10.0246 6.9784 10.0118 6.9812 9.99903 6.98423C9.99087 6.98614 9.98272 6.9885 9.97431 6.99007C9.95975 6.99265 9.94455 6.99411 9.92936 6.99557C9.92196 6.99624 9.91505 6.99759 9.90752 6.99804C9.88455 6.99938 9.86083 6.99949 9.83647 6.99804C9.80861 6.99646 9.78275 6.99242 9.75777 6.98715C9.75011 6.98547 9.74283 6.98334 9.7353 6.98132C9.71823 6.97672 9.70166 6.97156 9.68597 6.96538C9.67856 6.96247 9.67128 6.95955 9.66413 6.9563C9.64793 6.94878 9.63249 6.94025 9.6178 6.93105C9.61316 6.92814 9.60826 6.92567 9.60374 6.92264C9.58529 6.90996 9.56785 6.89594 9.55165 6.88057C9.54764 6.87664 9.54387 6.87227 9.53998 6.86834C9.52805 6.85611 9.51675 6.84332 9.50596 6.82974C9.50131 6.82369 9.49667 6.8174 9.49228 6.81112C9.48286 6.79788 9.47407 6.78408 9.46554 6.76972C9.46202 6.76355 9.45813 6.75749 9.45474 6.75109C9.44357 6.73045 9.43315 6.70902 9.42399 6.6867L9.42386 6.68636C9.41458 6.66381 9.40642 6.64013 9.39901 6.61613C9.39675 6.60906 9.39487 6.60177 9.39274 6.59447C9.38759 6.57652 9.38294 6.55835 9.37868 6.53972C9.37679 6.53209 9.37516 6.52435 9.37353 6.5165C9.36913 6.49518 9.36524 6.47353 9.36173 6.45154C9.36098 6.44716 9.36022 6.4429 9.35947 6.43853C9.35558 6.41126 9.35219 6.38355 9.34968 6.35573C9.34943 6.35214 9.34917 6.34854 9.3488 6.34495C9.34666 6.32061 9.34516 6.29604 9.34403 6.27147C9.34365 6.26552 9.34352 6.25958 9.34327 6.25363C9.34227 6.22928 9.34177 6.20494 9.34164 6.1807C9.34151 6.17723 9.34152 6.17364 9.34152 6.17016C9.34139 6.08164 9.34616 5.99446 9.35344 5.91346C9.35557 5.88922 9.35796 5.86544 9.36059 5.84244C9.41281 5.3692 9.40553 4.89249 9.3198 4.42319C9.14657 3.47538 8.67935 2.00687 7.42934 0.5C7.42934 0.5 6.6645 4.36204 3.90313 7.22119C3.69689 7.39363 3.5042 7.57875 3.32683 7.77554C3.3252 7.777 3.32369 7.77845 3.32206 7.77991L3.32244 7.78047C2.45365 8.74635 1.95029 9.98609 2.00389 11.3326C2.11473 14.1184 4.65253 16.3918 7.76927 16.4961C11.188 16.6107 14 14.1674 14 11.1373C14 10.753 13.9539 10.3783 13.8679 10.0168Z" fill="#FF5331"/>
<path id="Vector_2" d="M4.89815 11.6655C4.89828 11.6651 4.89828 11.6645 4.89828 11.6641C5.14331 10.0324 6.62693 9.21096 6.62693 9.21096C6.61451 9.29903 6.61401 9.5021 6.65982 9.68868C6.66284 9.70124 6.66622 9.71369 6.66961 9.72604C6.67011 9.72738 6.67049 9.72873 6.671 9.73019C6.67401 9.74118 6.67739 9.75207 6.68091 9.76273C6.68166 9.76497 6.68254 9.76721 6.68329 9.76934C6.68643 9.77911 6.68995 9.78887 6.69359 9.7984C6.69472 9.80132 6.69585 9.80424 6.69685 9.80715C6.70024 9.81591 6.70388 9.82454 6.70752 9.83296C6.70902 9.83632 6.71041 9.83958 6.71192 9.84272C6.71543 9.85068 6.71932 9.85843 6.72309 9.86606C6.72484 9.86965 6.7266 9.87312 6.72861 9.8766C6.73225 9.88378 6.73614 9.89063 6.74016 9.89758C6.74242 9.90129 6.74443 9.90487 6.74668 9.90846C6.7507 9.91486 6.75485 9.92114 6.75899 9.92731C6.76163 9.9309 6.76401 9.93449 6.76652 9.93808C6.77066 9.94381 6.77493 9.9493 6.77945 9.9548C6.78221 9.95828 6.7851 9.96187 6.78799 9.96524C6.79238 9.97028 6.79702 9.97522 6.80166 9.98004C6.8048 9.9833 6.80795 9.98666 6.81121 9.98969C6.81586 9.99418 6.82075 9.99845 6.82565 10.0026C6.82916 10.0055 6.8328 10.0085 6.83631 10.0113C6.84133 10.0153 6.84648 10.0188 6.85176 10.0223C6.85552 10.0249 6.85941 10.0276 6.86342 10.0301C6.8687 10.0333 6.87435 10.0363 6.88 10.0392C6.88401 10.0413 6.88816 10.0435 6.89242 10.0456C6.89832 10.0481 6.90435 10.0504 6.9105 10.0526C6.91477 10.0543 6.91904 10.0561 6.92343 10.0575C6.92996 10.0595 6.93686 10.0609 6.94351 10.0625C6.94778 10.0635 6.95205 10.0647 6.95657 10.0655C6.96422 10.0669 6.97239 10.0677 6.9803 10.0685C6.98419 10.0688 6.98795 10.0695 6.99184 10.0697C7.00414 10.0704 7.01657 10.0705 7.0295 10.0697C7.04419 10.0689 7.058 10.0668 7.07106 10.064C7.0752 10.0631 7.07909 10.0619 7.08298 10.0609C7.09201 10.0586 7.1008 10.0558 7.10896 10.0525C7.11285 10.0509 7.11687 10.0495 7.12063 10.0477C7.12917 10.0438 7.13733 10.0393 7.14511 10.0343C7.14762 10.0328 7.15014 10.0315 7.15252 10.0299C7.16231 10.0231 7.17147 10.0157 7.18013 10.0076C7.18239 10.0055 7.18415 10.0033 7.18629 10.0011C7.19269 9.99463 7.19871 9.9879 7.20436 9.98072C7.20687 9.97746 7.20926 9.97421 7.21165 9.97084C7.21667 9.96378 7.22131 9.9566 7.22571 9.94897C7.22771 9.94571 7.22959 9.94246 7.23147 9.93921C7.23737 9.92832 7.2429 9.91699 7.24779 9.9051V9.90499C7.25269 9.89309 7.25696 9.88053 7.26085 9.86785C7.2621 9.86415 7.26311 9.86022 7.26411 9.85641C7.26675 9.84687 7.26939 9.83733 7.27164 9.82746C7.27265 9.82342 7.27353 9.81938 7.27428 9.81523C7.27654 9.8039 7.27867 9.79246 7.28056 9.7809C7.28093 9.77854 7.28144 9.7763 7.28169 9.77406C7.28382 9.75958 7.28545 9.745 7.28696 9.73019C7.28709 9.72828 7.28721 9.72638 7.28734 9.72447C7.28847 9.71157 7.28934 9.69866 7.28997 9.68565C7.2901 9.68251 7.29022 9.67937 7.29035 9.67623C7.29085 9.66332 7.29123 9.65053 7.29123 9.63774C7.29123 9.63583 7.29135 9.63404 7.29135 9.63213C7.29135 9.58535 7.28884 9.53923 7.28508 9.49649C7.28382 9.4837 7.28257 9.47113 7.28131 9.4589C7.25357 9.20871 7.25746 8.95672 7.3029 8.70866C7.39441 8.20761 7.64145 7.43134 8.30223 6.63477C8.30223 6.63477 8.70656 8.67636 10.1663 10.1878C10.2753 10.279 10.3772 10.3769 10.471 10.4809C10.4719 10.4817 10.4726 10.4824 10.4734 10.4832L10.4732 10.4836C10.9324 10.9942 11.1985 11.6495 11.1703 12.3612C11.1117 13.8339 9.77016 15.0356 8.1226 15.0908C6.31537 15.1514 4.82887 13.8598 4.82887 12.258C4.82824 12.0547 4.85259 11.8566 4.89815 11.6655Z" fill="#FFCE00"/>
</g>
</g>
</g>
</g>
<defs>
<clipPath id="clip0_16_1262">
<rect width="16" height="16" fill="white" transform="translate(0 0.5)"/>
</clipPath>
</defs>
</svg>
