<svg width="16" height="17" viewBox="0 0 16 17" fill="none" xmlns="http://www.w3.org/2000/svg">
<g id="gear_484613 1" clip-path="url(#clip0_16_1238)">
<g id="Group">
<g id="Group_2">
<path id="Vector" d="M15.6448 7.10794L13.8095 6.65659C13.6992 6.30869 13.5573 5.97131 13.3861 5.64859C13.6616 5.18991 14.2407 4.2245 14.2407 4.2245C14.3515 4.04003 14.3222 3.80381 14.1702 3.65184L12.8445 2.32616C12.6926 2.17372 12.4568 2.14444 12.2719 2.25566L10.8455 3.11031C10.5246 2.94047 10.189 2.79994 9.84344 2.69053L9.39209 0.85525C9.33988 0.6465 9.15266 0.5 8.9375 0.5H7.0625C6.84734 0.5 6.65966 0.6465 6.60794 0.855219C6.60794 0.855219 6.29528 2.13616 6.15703 2.69006C5.78853 2.80678 5.43241 2.95831 5.09319 3.14325L3.61416 2.25566C3.42922 2.14578 3.19394 2.17419 3.0415 2.32616L1.71581 3.65184C1.56384 3.80381 1.53453 4.04003 1.64531 4.2245L2.55994 5.75206C2.41253 6.04275 2.28894 6.34531 2.19053 6.65522L0.35525 7.10794C0.1465 7.16012 0 7.34734 0 7.5625V9.4375C0 9.65266 0.1465 9.84034 0.355219 9.89206L2.19097 10.3434C2.30222 10.6963 2.44684 11.0392 2.62219 11.3683L1.80372 12.7325C1.69294 12.9169 1.72225 13.1532 1.87422 13.3051L3.19991 14.6308C3.35144 14.7823 3.58763 14.8112 3.77256 14.7013C3.77256 14.7013 4.69038 14.1511 5.13991 13.8819C5.46537 14.0554 5.80594 14.1987 6.15706 14.3099L6.60797 16.1447C6.65966 16.3535 6.84734 16.5 7.0625 16.5H8.9375C9.15266 16.5 9.33987 16.3535 9.39206 16.1448L9.84297 14.3099C10.2042 14.1955 10.552 14.0476 10.883 13.8682C11.3449 14.1451 12.2718 14.7013 12.2718 14.7013C12.4563 14.8116 12.6925 14.7832 12.8445 14.6308L14.1702 13.3051C14.3222 13.1532 14.3515 12.9169 14.2407 12.7325L13.3979 11.3285C13.5641 11.0131 13.7019 10.6831 13.8095 10.3434L15.6447 9.89206C15.8535 9.83987 16 9.65266 16 9.4375V7.5625C16 7.34734 15.8535 7.16012 15.6448 7.10794ZM8 11.7812C6.19091 11.7812 4.71875 10.3091 4.71875 8.5C4.71875 6.69091 6.19091 5.21875 8 5.21875C9.80909 5.21875 11.2812 6.69091 11.2812 8.5C11.2812 10.3091 9.80909 11.7812 8 11.7812Z" fill="#515151"/>
</g>
</g>
</g>
<defs>
<clipPath id="clip0_16_1238">
<rect width="16" height="16" fill="white" transform="translate(0 0.5)"/>
</clipPath>
</defs>
</svg>
