<svg width="16" height="17" viewBox="0 0 16 17" fill="none" xmlns="http://www.w3.org/2000/svg">
<g id="headphones_1436773 1" clip-path="url(#clip0_16_1244)">
<path id="Vector" d="M2.97913 6.02295H2.47705C2.47693 6.02295 2.47693 6.02295 2.47681 6.02295C2.47668 6.02295 2.47668 6.02295 2.47656 6.02295C1.11157 6.02295 0 7.13354 0 8.49951V11.0104C0 12.3762 1.11121 13.4875 2.47705 13.4875H2.97913C3.78894 13.4875 4.45203 12.8328 4.45203 12.0146V7.49585C4.45203 6.67383 3.78479 6.02295 2.97913 6.02295Z" fill="#515151"/>
<path id="Vector_2" d="M13.5234 6.02295C13.5233 6.02295 13.5232 6.02295 13.5232 6.02295C13.5231 6.02295 13.5229 6.02295 13.5229 6.02295H13.0209C12.2152 6.02295 11.5479 6.67383 11.5479 7.49585V12.0146C11.5479 12.8328 12.2111 13.4875 13.0209 13.4875H13.5229C14.8888 13.4875 16 12.3762 16 11.0104V8.49951C16 7.13354 14.8884 6.02295 13.5234 6.02295Z" fill="#515151"/>
<path id="Vector_3" d="M13.0209 14.425H12.8429C12.5088 15.0983 11.814 15.5625 11.0125 15.5625H10.8781C10.9431 15.3966 10.9794 15.2159 10.9794 15.0272C10.9794 14.215 10.3184 13.5541 9.50623 13.5541C8.69409 13.5541 8.03345 14.215 8.03345 15.0272C8.03345 15.8394 8.69409 16.5 9.50623 16.5H11.0125C12.3401 16.5 13.4674 15.6271 13.8513 14.425H13.0209Z" fill="#515151"/>
<path id="Vector_4" d="M12.8545 5.08545H13.0148C13.0168 5.08545 13.0188 5.08533 13.0209 5.08533H13.5228C13.5244 5.08533 13.5259 5.08545 13.5275 5.08545H13.8243C13.1901 2.45789 10.8197 0.5 8 0.5C5.18054 0.5 2.80981 2.45789 2.17554 5.08545H2.4718C2.47339 5.08545 2.47498 5.08533 2.47644 5.08533H2.979C2.98108 5.08533 2.98303 5.08545 2.98511 5.08545H3.14539C3.75586 2.98059 5.70081 1.4375 8 1.4375C10.2991 1.4375 12.2441 2.98059 12.8545 5.08545Z" fill="#515151"/>
</g>
<defs>
<clipPath id="clip0_16_1244">
<rect width="16" height="16" fill="white" transform="translate(0 0.5)"/>
</clipPath>
</defs>
</svg>
