<svg width="16" height="17" viewBox="0 0 16 17" fill="none" xmlns="http://www.w3.org/2000/svg">
<g id="info_471713 1" clip-path="url(#clip0_16_1232)">
<g id="Group">
<g id="Group_2">
<path id="Vector" d="M8 0.5C3.57841 0.5 0 4.078 0 8.5C0 12.9215 3.578 16.5 8 16.5C12.4216 16.5 16 12.922 16 8.5C16 4.07847 12.422 0.5 8 0.5ZM8.82153 11.6757C8.82153 11.9284 8.45297 12.1811 8.00016 12.1811C7.52628 12.1811 7.18934 11.9284 7.18934 11.6757V7.66356C7.18934 7.36872 7.52631 7.16859 8.00016 7.16859C8.45297 7.16859 8.82153 7.36872 8.82153 7.66356V11.6757ZM8.00019 6.19987C7.51578 6.19987 7.13672 5.84184 7.13672 5.44166C7.13672 5.0415 7.51581 4.694 8.00019 4.694C8.47406 4.694 8.85319 5.0415 8.85319 5.44166C8.85319 5.84184 8.47403 6.19987 8.00019 6.19987Z" fill="#515151"/>
</g>
</g>
</g>
<defs>
<clipPath id="clip0_16_1232">
<rect width="16" height="16" fill="white" transform="translate(0 0.5)"/>
</clipPath>
</defs>
</svg>
