<svg width="20" height="20" viewBox="0 0 20 20" fill="none" xmlns="http://www.w3.org/2000/svg">
<g id="mingcute:lock-fill">
<path id="Vector" fill-rule="evenodd" clip-rule="evenodd" d="M8.66667 10C8.66667 9.20435 9.01786 8.44129 9.64298 7.87868C10.2681 7.31607 11.1159 7 12 7C12.8841 7 13.7319 7.31607 14.357 7.87868C14.9821 8.44129 15.3333 9.20435 15.3333 10H15.8889C16.1836 10 16.4662 10.1054 16.6746 10.2929C16.8829 10.4804 17 10.7348 17 11V16C17 16.2652 16.8829 16.5196 16.6746 16.7071C16.4662 16.8946 16.1836 17 15.8889 17H8.11111C7.81643 17 7.53381 16.8946 7.32544 16.7071C7.11706 16.5196 7 16.2652 7 16V11C7 10.7348 7.11706 10.4804 7.32544 10.2929C7.53381 10.1054 7.81643 10 8.11111 10H8.66667ZM12 8C12.5894 8 13.1546 8.21071 13.5713 8.58579C13.9881 8.96086 14.2222 9.46957 14.2222 10H9.77778C9.77778 9.46957 10.0119 8.96086 10.4287 8.58579C10.8454 8.21071 11.4106 8 12 8ZM13.1111 13C13.1111 13.1755 13.0598 13.348 12.9622 13.5C12.8647 13.652 12.7245 13.7782 12.5556 13.866V14.5C12.5556 14.6326 12.497 14.7598 12.3928 14.8536C12.2887 14.9473 12.1473 15 12 15C11.8527 15 11.7113 14.9473 11.6072 14.8536C11.503 14.7598 11.4444 14.6326 11.4444 14.5V13.866C11.2326 13.7559 11.0671 13.586 10.9735 13.3827C10.8799 13.1793 10.8635 12.9538 10.9268 12.7412C10.9901 12.5286 11.1296 12.3407 11.3236 12.2067C11.5177 12.0727 11.7554 12 12 12C12.2947 12 12.5773 12.1054 12.7857 12.2929C12.994 12.4804 13.1111 12.7348 13.1111 13Z" fill="white"/>
</g>
</svg>
