<svg width="20" height="20" viewBox="0 0 20 20" fill="none" xmlns="http://www.w3.org/2000/svg">
<g id="lock">
<path id="Vector" fill-rule="evenodd" clip-rule="evenodd" d="M5.33333 7.2C5.33333 6.08609 5.825 5.0178 6.70017 4.23015C7.57534 3.4425 8.76232 3 10 3C11.2377 3 12.4247 3.4425 13.2998 4.23015C14.175 5.0178 14.6667 6.08609 14.6667 7.2H15.4444C15.857 7.2 16.2527 7.3475 16.5444 7.61005C16.8361 7.8726 17 8.2287 17 8.6V15.6C17 15.9713 16.8361 16.3274 16.5444 16.5899C16.2527 16.8525 15.857 17 15.4444 17H4.55556C4.143 17 3.74733 16.8525 3.45561 16.5899C3.16389 16.3274 3 15.9713 3 15.6V8.6C3 8.2287 3.16389 7.8726 3.45561 7.61005C3.74733 7.3475 4.143 7.2 4.55556 7.2H5.33333ZM10 4.4C10.8251 4.4 11.6164 4.695 12.1999 5.2201C12.7833 5.7452 13.1111 6.45739 13.1111 7.2H6.88889C6.88889 6.45739 7.21667 5.7452 7.80011 5.2201C8.38356 4.695 9.17488 4.4 10 4.4ZM11.5556 11.4C11.5555 11.6457 11.4837 11.8872 11.3471 12.1C11.2106 12.3128 11.0142 12.4895 10.7778 12.6124V13.5C10.7778 13.6857 10.6958 13.8637 10.55 13.995C10.4041 14.1263 10.2063 14.2 10 14.2C9.79372 14.2 9.59589 14.1263 9.45003 13.995C9.30417 13.8637 9.22222 13.6857 9.22222 13.5V12.6124C8.92569 12.4583 8.69394 12.2204 8.56291 11.9357C8.43188 11.651 8.40889 11.3353 8.49752 11.0376C8.58614 10.74 8.78143 10.4769 9.05308 10.2893C9.32474 10.1017 9.65758 10 10 10C10.4126 10 10.8082 10.1475 11.0999 10.4101C11.3917 10.6726 11.5556 11.0287 11.5556 11.4Z" fill="#383838"/>
</g>
</svg>
