<svg width="125" height="29" viewBox="0 0 125 29" fill="none" xmlns="http://www.w3.org/2000/svg">
<path fill-rule="evenodd" clip-rule="evenodd" d="M8.43993 5.05721C7.58968 5.14968 6.31131 5.53903 5.3876 5.98687C3.47545 6.91392 1.9731 8.41377 1.03229 10.3352C0.596755 11.2247 0.0898687 12.7639 0.195449 12.8766C0.217266 12.8999 0.426126 12.7741 0.659703 12.5969C1.23924 12.1576 2.55775 11.5232 3.286 11.3335C4.97809 10.8926 6.99192 11.1111 8.57923 11.9076L8.96883 12.1031L8.56612 12.5053L8.16352 12.9075L7.52613 12.6543C5.83504 11.9825 4.04218 12.0467 2.38532 12.8385C1.66057 13.1849 0.751973 13.8862 0.274409 14.468L0 14.8022L0.120893 15.7176C0.390498 17.7596 1.29188 19.6109 2.73558 21.088C4.15857 22.5438 5.74197 23.4166 7.66233 23.8038L8.63608 24L9.02717 23.6907C10.1753 22.7824 11.0398 21.4652 11.396 20.0816C11.6076 19.2592 11.5547 17.4777 11.2964 16.7328C10.96 15.7624 10.5062 14.9738 9.91075 14.3248L9.30859 13.6683L10.7653 12.2017L12.2219 10.735L12.268 10.2069C12.322 9.58863 12.5917 9.23826 13.1375 9.07692C13.8782 8.8581 14.7447 9.46528 14.7447 10.2032C14.7447 10.9625 14.2308 11.498 13.4716 11.53C13.0558 11.5475 12.9767 11.6046 11.9479 12.629L10.8627 13.7096L11.2096 14.1636C11.6731 14.77 12.0734 15.5794 12.3585 16.4864C12.5561 17.1149 12.5931 17.4454 12.5931 18.5821C12.5931 19.7172 12.5559 20.0508 12.3587 20.6813C12.0531 21.6591 11.5521 22.6043 10.9326 23.3723L10.4338 23.9906L10.8129 23.9274C13.0461 23.5555 14.7872 22.6721 16.2991 21.144C17.5382 19.8916 18.3727 18.3921 18.8174 16.6191C19.0839 15.5563 19.0539 13.2934 18.7585 12.1845C17.5231 7.54759 13.1725 4.5425 8.43993 5.05721ZM4.76533 14.6207C5.28432 14.8416 5.56104 15.2142 5.60767 15.7549C5.67993 16.5923 5.1249 17.1993 4.28677 17.1993C2.80654 17.1993 2.42375 15.2296 3.78638 14.6248C4.17308 14.453 4.36963 14.4522 4.76533 14.6207ZM8.90288 18.598C9.99491 19.6889 8.70353 21.436 7.32968 20.7264C6.71091 20.4068 6.45582 19.5249 6.79357 18.8726C7.19438 18.0984 8.26329 17.9592 8.90288 18.598Z" fill="#5C75C9"/>
<path d="M24.192 6.68V6.2H27.408L31.896 17.336L36.336 6.2H39.336V6.68L32.568 23.192H30.984L24.192 6.68ZM46.5711 6.2C47.4831 6.2 48.3071 6.32 49.0431 6.56C49.7951 6.8 50.4271 7.152 50.9391 7.616C51.4671 8.064 51.8671 8.608 52.1391 9.248C52.4271 9.888 52.5711 10.616 52.5711 11.432C52.5711 12.248 52.4271 12.992 52.1391 13.664C51.8671 14.336 51.4671 14.912 50.9391 15.392C50.4111 15.856 49.7631 16.224 48.9951 16.496C48.2431 16.752 47.3871 16.88 46.4271 16.88H44.7231V23H41.5071V6.2H46.5711ZM46.2591 14.096C47.2991 14.096 48.0671 13.848 48.5631 13.352C49.0591 12.856 49.3071 12.248 49.3071 11.528C49.3071 11.176 49.2431 10.848 49.1151 10.544C49.0031 10.224 48.8191 9.952 48.5631 9.728C48.3231 9.488 48.0031 9.304 47.6031 9.176C47.2191 9.032 46.7551 8.96 46.2111 8.96H44.7231V14.096H46.2591ZM55.2883 6.2H57.5683L66.2083 16.88V6.2H69.4243V23H67.3843L58.5043 12.08V23H55.2883V6.2ZM75.8546 8.96H71.8226V6.2H83.0546V8.96H79.0706V23H75.8546V8.96ZM92.8543 15.968V23H89.6383V16.04L84.2863 6.68V6.2H87.6223L91.3423 12.68L94.9423 6.2H98.0863V6.68L92.8543 15.968ZM105.329 6.2C106.241 6.2 107.065 6.32 107.801 6.56C108.553 6.8 109.185 7.152 109.697 7.616C110.225 8.064 110.625 8.608 110.897 9.248C111.185 9.888 111.329 10.616 111.329 11.432C111.329 12.248 111.185 12.992 110.897 13.664C110.625 14.336 110.225 14.912 109.697 15.392C109.169 15.856 108.521 16.224 107.753 16.496C107.001 16.752 106.145 16.88 105.185 16.88H103.481V23H100.265V6.2H105.329ZM105.017 14.096C106.057 14.096 106.825 13.848 107.321 13.352C107.817 12.856 108.065 12.248 108.065 11.528C108.065 11.176 108.001 10.848 107.873 10.544C107.761 10.224 107.577 9.952 107.321 9.728C107.081 9.488 106.761 9.304 106.361 9.176C105.977 9.032 105.513 8.96 104.969 8.96H103.481V14.096H105.017ZM114.046 6.2H123.406V8.96H117.262V12.8H122.326V15.488H117.262V20.24H123.646V23H114.046V6.2Z" fill="#5C75C9"/>
</svg>
