<svg width="105" height="20" viewBox="0 0 105 20" fill="none" xmlns="http://www.w3.org/2000/svg">
<g id="vpntype logo (2) 2">
<path id="Vector" fill-rule="evenodd" clip-rule="evenodd" d="M8.09946 0.992076C7.28348 1.08028 6.05671 1.45171 5.17026 1.87892C3.33525 2.76328 1.89351 4.19406 0.99064 6.02696C0.572681 6.87556 0.0862433 8.34381 0.187565 8.45138C0.208501 8.47363 0.408935 8.35356 0.633093 8.18456C1.18925 7.76544 2.45457 7.16031 3.15345 6.97931C4.77727 6.55869 6.70988 6.76713 8.23313 7.52694L8.60704 7.7135L8.22056 8.09713L7.83419 8.48088L7.22255 8.23931C5.59966 7.5985 3.87911 7.65969 2.28909 8.41506C1.59358 8.74544 0.721639 9.4145 0.263339 9.9695L0 10.2883L0.116016 11.1615C0.374745 13.1095 1.23977 14.8756 2.62523 16.2846C3.99081 17.6734 5.51034 18.506 7.35321 18.8753L8.28771 19.0625L8.663 18.7674C9.76487 17.9009 10.5944 16.6445 10.9363 15.3245C11.1394 14.54 11.0886 12.8406 10.8407 12.1299C10.5179 11.2043 10.0824 10.452 9.51093 9.83288L8.93305 9.20663L10.331 7.8075L11.7289 6.40838L11.7731 5.90461C11.8249 5.31481 12.0837 4.98058 12.6075 4.82667C13.3183 4.61793 14.1499 5.19714 14.1499 5.90109C14.1499 6.62544 13.6568 7.13625 12.9281 7.16681C12.5291 7.1835 12.4532 7.23794 11.4659 8.21519L10.4245 9.246L10.7574 9.67913C11.2022 10.2576 11.5863 11.0297 11.86 11.8949C12.0495 12.4945 12.0851 12.8098 12.0851 13.8941C12.0851 14.9769 12.0493 15.2951 11.8602 15.8967C11.5669 16.8294 11.0861 17.7311 10.4916 18.4638L10.0129 19.0536L10.3768 18.9933C12.5198 18.6384 14.1907 17.7958 15.6416 16.338C16.8307 15.1433 17.6315 13.7128 18.0583 12.0216C18.3141 11.0077 18.2853 8.84894 18.0018 7.79113C16.8163 3.36777 12.6411 0.501072 8.09946 0.992076ZM4.5731 10.1151C5.07115 10.3259 5.3367 10.6813 5.38146 11.1971C5.4508 11.996 4.91816 12.575 4.11384 12.575C2.69332 12.575 2.32597 10.6961 3.63364 10.119C4.00474 9.95519 4.19335 9.95444 4.5731 10.1151ZM8.54373 13.9093C9.59172 14.9499 8.3524 16.6166 7.03399 15.9397C6.44021 15.6348 6.19538 14.7934 6.51949 14.1713C6.90416 13.4327 7.92995 13.2999 8.54373 13.9093Z" fill="#5C75C9"/>
<path id="Vector_2" d="M28.4898 12.8027H28.5782L31.83 4.9414H33.844L29.6196 15H27.4485L23.2241 4.9414H25.2184L28.4898 12.8027ZM41.0745 15.2441C39.4044 15.2441 38.1109 14.5507 37.194 13.1641H37.135V19.4434H35.2586V4.9414H36.3491L36.9484 7.08006H37.0172C37.4297 6.33137 37.993 5.74544 38.7069 5.32226C39.4208 4.89257 40.21 4.67773 41.0745 4.67773C42.4303 4.67773 43.5666 5.17252 44.4835 6.16211C45.3938 7.15818 45.8556 8.4245 45.8687 9.96093C45.8687 11.5039 45.4135 12.7669 44.5031 13.75C43.5862 14.7461 42.4433 15.2441 41.0745 15.2441ZM42.9706 7.42187C42.3091 6.76431 41.497 6.43556 40.5342 6.43556C39.5714 6.43556 38.7658 6.76431 38.1175 7.42187C37.4625 8.07943 37.135 8.92575 37.135 9.96093C37.135 10.9831 37.4658 11.8294 38.1273 12.5C38.7822 13.1641 39.5911 13.4961 40.5538 13.4961C41.51 13.4961 42.3156 13.1641 42.9706 12.5C43.6255 11.8424 43.9529 10.9961 43.9529 9.96093C43.9529 8.92575 43.6255 8.07943 42.9706 7.42187ZM53.2859 6.43556C52.3624 6.43556 51.5896 6.75456 50.9674 7.39256C50.3386 8.03712 50.0243 8.85418 50.0243 9.84375V15H48.1282V4.9414H49.2187L49.818 7.08006H49.8868C50.2863 6.33137 50.8364 5.7487 51.5372 5.33203C52.2446 4.90885 53.0271 4.69726 53.8851 4.69726C55.2016 4.69726 56.292 5.17252 57.1565 6.12305C58.0211 7.08006 58.4534 8.2975 58.4534 9.77537V15H56.5868V9.84375C56.5868 8.85418 56.2724 8.03712 55.6437 7.39256C55.0018 6.75456 54.2159 6.43556 53.2859 6.43556Z" fill="#5C75C9"/>
<path id="Vector_3" d="M64.839 12.9785C65.1798 13.3691 65.7168 13.5644 66.4505 13.5644C67.1836 13.5644 67.8256 13.444 68.3757 13.2031L68.6014 14.8828C68.5819 14.8828 68.4706 14.9121 68.2676 14.9707C68.0387 15.0358 67.8582 15.0814 67.7275 15.1074C67.249 15.2116 66.7548 15.2637 66.2436 15.2637C65.039 15.2637 64.1021 14.9284 63.4344 14.2578C62.7596 13.5937 62.4223 12.6757 62.4223 11.5039V6.5625H59.9467V4.9414H62.4616L62.9232 1.98242H64.3184V4.9414H68.5819V6.5625H64.3184V11.1816C64.3184 11.9954 64.492 12.5944 64.839 12.9785ZM74.3387 12.6562L77.3743 4.9414H79.2706L74.9775 15.8594C74.3947 17.3242 73.7691 18.3236 73.1013 18.8574C72.4267 19.3912 71.4572 19.6582 70.1934 19.6582C69.7413 19.6582 69.3188 19.6061 68.9259 19.5019V17.7637C69.3515 17.8939 69.813 17.959 70.311 17.959C71.0579 17.959 71.6502 17.7702 72.0891 17.3926C72.5216 17.0215 72.9014 16.3834 73.229 15.4785L73.327 15.1953L69.0044 4.9414H70.9988L74.2802 12.6562H74.3387ZM86.4816 15.2441C84.8117 15.2441 83.5177 14.5507 82.601 13.1641H82.5419V19.4434H80.6657V4.9414H81.756L82.3552 7.08006H82.4243C82.8368 6.33137 83.4001 5.74544 84.1138 5.32226C84.828 4.89257 85.6171 4.67773 86.4816 4.67773C87.8372 4.67773 88.9733 5.17252 89.8906 6.16211C90.8011 7.15818 91.2626 8.4245 91.2758 9.96093C91.2758 11.5039 90.8206 12.7669 89.9101 13.75C88.9934 14.7461 87.8504 15.2441 86.4816 15.2441ZM88.3773 7.42187C87.7158 6.76431 86.9041 6.43556 85.9415 6.43556C84.9783 6.43556 84.1729 6.76431 83.5246 7.42187C82.8695 8.07943 82.5419 8.92575 82.5419 9.96093C82.5419 10.9831 82.8726 11.8294 83.534 12.5C84.1892 13.1641 84.9984 13.4961 85.961 13.4961C86.9173 13.4961 87.7227 13.1641 88.3773 12.5C89.0324 11.8424 89.36 10.9961 89.36 9.96093C89.36 8.92575 89.0324 8.07943 88.3773 7.42187ZM94.5572 6.17187C95.5657 5.1888 96.8489 4.69726 98.4082 4.69726C99.96 4.69726 101.231 5.18555 102.22 6.16211C103.209 7.14518 103.703 8.418 103.703 9.9805C103.703 10.0261 103.687 10.2864 103.654 10.7617H95.0287C95.2054 11.6016 95.6474 12.2656 96.3547 12.7539C97.0489 13.2487 97.9461 13.4961 99.0464 13.4961C100.455 13.4961 101.61 13.1641 102.515 12.5L102.878 14.1797C101.895 14.9024 100.618 15.2637 99.0464 15.2637C97.2061 15.2637 95.7455 14.7754 94.6647 13.7988C93.5776 12.8353 93.0344 11.5625 93.0344 9.9805C93.0344 8.431 93.5418 7.16143 94.5572 6.17187ZM95.0287 9.0625H101.788C101.715 8.30731 101.362 7.68231 100.726 7.1875C100.071 6.68618 99.2985 6.43556 98.4082 6.43556C97.5563 6.43556 96.8294 6.67318 96.2271 7.14843C95.6116 7.63018 95.2117 8.26825 95.0287 9.0625Z" fill="#11132D"/>
</g>
</svg>
