<svg width="14" height="15" viewBox="0 0 14 15" fill="none" xmlns="http://www.w3.org/2000/svg">
<g id="power_3288002 1" clip-path="url(#clip0_144_1482)">
<path id="Vector" fill-rule="evenodd" clip-rule="evenodd" d="M5.43594e-05 7.50003C5.43594e-05 9.36832 0.729202 11.1287 2.05026 12.4498C3.37135 13.7709 5.13177 14.5 7.00003 14.5C8.86826 14.5 10.6286 13.7709 11.9497 12.4498C13.2708 11.1287 14 9.36837 14 7.50003C14 5.01894 12.6797 2.71728 10.5422 1.46179C10.283 1.30954 9.98304 1.30784 9.72215 1.45717C9.46124 1.60649 9.31074 1.86604 9.31074 2.16666C9.31074 2.48406 9.43482 2.74011 9.71225 2.90409C11.3344 3.86295 12.336 5.61391 12.336 7.5C12.336 10.4421 9.94211 12.836 7.00003 12.836C4.05798 12.836 1.66406 10.4421 1.66406 7.5C1.66406 5.61397 2.66547 3.86293 4.28764 2.90414C4.54294 2.75323 4.68918 2.49702 4.68918 2.20043C4.68918 1.879 4.56107 1.61929 4.27777 1.45714C4.01688 1.30782 3.71686 1.30948 3.45767 1.46171C1.32021 2.71711 5.43594e-05 5.01905 5.43594e-05 7.50003ZM6.1918 6.40264V1.30809C6.1918 0.861867 6.55383 0.5 7.00003 0.5C7.44622 0.5 7.80812 0.861894 7.80812 1.30809V6.40261C7.80812 6.84895 7.44639 7.21073 7.00003 7.21073C6.5537 7.21076 6.1918 6.849 6.1918 6.40264Z" fill="#383838"/>
</g>
<defs>
<clipPath id="clip0_144_1482">
<rect width="14" height="14" fill="white" transform="matrix(-1 0 0 1 14 0.5)"/>
</clipPath>
</defs>
</svg>
