<svg width="16" height="11" viewBox="0 0 16 11" fill="none" xmlns="http://www.w3.org/2000/svg">
<g id="cellularbars">
<g id="Group">
<path id="Vector" d="M13.9423 10.4943H15.3833C15.751 10.4943 16.0001 10.2409 16.0001 9.86671V1.12752C16.0001 0.75331 15.751 0.5 15.3833 0.5H13.9423C13.5746 0.5 13.3196 0.75331 13.3196 1.12752V9.86671C13.3196 10.2409 13.5746 10.4943 13.9423 10.4943Z" fill="#34C759"/>
<path id="Vector_2" d="M9.50624 10.4943H10.9354C11.3031 10.4943 11.5581 10.2409 11.5581 9.86672V3.40156C11.5581 3.02736 11.3031 2.77405 10.9354 2.77405H9.50624C9.13262 2.77405 8.88354 3.02736 8.88354 3.40156V9.86672C8.88354 10.2409 9.13262 10.4943 9.50624 10.4943Z" fill="#34C759"/>
<path id="Vector_3" d="M5.06457 10.4943H6.49377C6.86739 10.4943 7.11647 10.2409 7.11647 9.86672V5.48559C7.11647 5.11141 6.86739 4.85809 6.49377 4.85809H5.06457C4.69097 4.85809 4.44189 5.11141 4.44189 5.48559V9.86672C4.44189 10.2409 4.69097 10.4943 5.06457 10.4943Z" fill="#34C759"/>
<path id="Vector_4" d="M0.622684 10.4943H2.05189C2.4255 10.4943 2.67457 10.2409 2.67457 9.86672V7.28181C2.67457 6.90761 2.4255 6.66006 2.05189 6.66006H0.622684C0.249074 6.66006 0 6.90761 0 7.28181V9.86672C0 10.2409 0.249074 10.4943 0.622684 10.4943Z" fill="#34C759"/>
</g>
</g>
</svg>
