<svg width="16" height="11" viewBox="0 0 16 11" fill="none" xmlns="http://www.w3.org/2000/svg">
  <g id="Group">
    <path id="Vector" d="M13.943 9.99425H15.3841C15.7517 9.99425 16.0008 9.74091 16.0008 9.36671V0.627516C16.0008 0.25331 15.7517 0 15.3841 0H13.943C13.5753 0 13.3203 0.25331 13.3203 0.627516V9.36671C13.3203 9.74091 13.5753 9.99425 13.943 9.99425Z" fill="#C2C4CA"></path>
    <path id="Vector_2" d="M9.50551 9.99366H10.9347C11.3024 9.99366 11.5574 9.74031 11.5574 9.36611V2.90095C11.5574 2.52674 11.3024 2.27344 10.9347 2.27344H9.50551C9.13189 2.27344 8.88281 2.52674 8.88281 2.90095V9.36611C8.88281 9.74031 9.13189 9.99366 9.50551 9.99366Z" fill="#FFCC00"></path>
    <path id="Vector_3" d="M5.06409 9.99359H6.49328C6.8669 9.99359 7.11598 9.74025 7.11598 9.36605V4.98492C7.11598 4.61073 6.8669 4.35742 6.49328 4.35742H5.06409C4.69048 4.35742 4.44141 4.61073 4.44141 4.98492V9.36605C4.44141 9.74025 4.69048 9.99359 5.06409 9.99359Z" fill="#FFCC00"></path>
    <path id="Vector_4" d="M0.622684 9.99435H2.05189C2.4255 9.99435 2.67457 9.74101 2.67457 9.36681V6.7819C2.67457 6.40771 2.4255 6.16016 2.05189 6.16016H0.622684C0.249074 6.16016 0 6.40771 0 6.7819V9.36681C0 9.74101 0.249074 9.99435 0.622684 9.99435Z" fill="#FFCC00"></path>
  </g>
</svg>
