<svg width="16" height="16" viewBox="0 0 16 16" fill="none" xmlns="http://www.w3.org/2000/svg">
<g id="icon:premium" clip-path="url(#clip0_2389_43663)">
<g id="Group">
<path id="Vector" fill-rule="evenodd" clip-rule="evenodd" d="M10.9829 11.2167L9.59353 12.2587C9.41145 12.3953 9.30338 12.6089 9.3013 12.8365C9.29922 13.0641 9.40334 13.2797 9.5829 13.4196L11.6484 15.0287C11.9186 15.2393 12.2999 15.2569 12.5894 15.0715C12.8888 14.8798 13.0199 14.5221 12.9183 14.1906C12.9183 14.1906 12.3969 12.4906 12.1198 11.587C12.05 11.3595 11.8738 11.1802 11.6475 11.1065C11.4213 11.0328 11.1733 11.0739 10.9829 11.2167Z" fill="#474751"/>
<path id="Vector_2" fill-rule="evenodd" clip-rule="evenodd" d="M11.0947 11.1476C11.2722 11.2362 11.4076 11.3943 11.4667 11.587C11.7438 12.4907 12.2652 14.1906 12.2652 14.1906C12.3669 14.5221 12.2357 14.8798 11.9363 15.0715C11.8998 15.0949 11.8618 15.115 11.8227 15.132C12.0679 15.2382 12.358 15.2197 12.5895 15.0715C12.8888 14.8798 13.02 14.5221 12.9184 14.1906C12.9184 14.1906 12.397 12.4907 12.1199 11.587C12.0501 11.3595 11.8739 11.1802 11.6476 11.1065C11.4634 11.0465 11.2649 11.0626 11.0947 11.1476Z" fill="#474751"/>
<path id="Vector_3" fill-rule="evenodd" clip-rule="evenodd" d="M7.23035 0.562184L5.87263 5.05567C5.85428 5.11642 5.79324 5.15377 5.72739 5.15359L1.20501 5.14305C0.863443 5.14225 0.561272 5.35265 0.447476 5.66203C0.331007 5.9786 0.43272 6.33214 0.705173 6.54245L4.45336 9.43578C4.49445 9.46749 4.51413 9.519 4.49926 9.56754L3.08127 14.1912C2.97962 14.5226 3.11081 14.8804 3.41013 15.0721C3.69963 15.2574 4.08098 15.2398 4.3512 15.0293C5.51802 14.1203 14.0955 7.46891 15.2957 6.54245C15.5682 6.33214 15.6699 5.9786 15.5534 5.66203C15.4396 5.35265 15.1374 5.14225 14.7959 5.14305L10.2735 5.15359C10.2076 5.15377 10.1466 5.11642 10.1283 5.05567C9.87982 4.23351 9.22206 2.05659 8.77053 0.562184C8.67066 0.23169 8.35866 0 8.00044 0C7.64221 0 7.33022 0.23169 7.23035 0.562184Z" fill="#474751"/>
<path id="Vector_4" fill-rule="evenodd" clip-rule="evenodd" d="M14.1927 5.14444C14.5134 5.16315 14.792 5.36785 14.9002 5.66203C15.0167 5.9786 14.9149 6.33214 14.6425 6.54245C13.4423 7.46891 4.86481 14.1203 3.69798 15.0293C3.6438 15.0715 3.58514 15.106 3.52368 15.1326C3.79403 15.2499 4.11502 15.2132 4.35113 15.0293C5.51796 14.1203 14.0954 7.46891 15.2956 6.54245C15.5681 6.33214 15.6698 5.9786 15.5533 5.66203C15.4395 5.35265 15.1374 5.14225 14.7958 5.14305L14.1927 5.14444ZM7.67379 0.0678385C7.88461 0.159725 8.04965 0.338272 8.11731 0.562184C8.56885 2.05659 9.2266 4.23351 9.47503 5.05567C9.49338 5.11642 9.55442 5.15377 9.62027 5.15359L10.2506 5.15213C10.1939 5.14471 10.1444 5.10932 10.1282 5.05567C9.87975 4.23351 9.222 2.05659 8.77046 0.562184C8.67059 0.23169 8.35859 0 8.00037 0C7.88485 0 7.77411 0.0241072 7.67379 0.0678385Z" fill="#474751"/>
</g>
</g>
<defs>
<clipPath id="clip0_2389_43663">
<rect width="16" height="16" fill="white"/>
</clipPath>
</defs>
</svg>
