<svg width="16" height="16" viewBox="0 0 16 16" fill="none" xmlns="http://www.w3.org/2000/svg">
<g id="support">
<path id="Vector" d="M13.4287 4.70587H13.0979V7.2771C13.0979 9.18207 11.5481 10.7319 9.64313 10.7319H4.70581V11.0628C4.70581 12.4805 5.85929 13.6339 7.27704 13.6339H12.5589L15.2753 15.8976C15.3562 15.965 15.4568 16 15.5582 16C15.8011 16 15.9999 15.8029 15.9999 15.5582V7.2771C15.9999 5.85716 14.8512 4.70587 13.4287 4.70587Z" fill="#474751"/>
<path id="Vector_2" d="M12.2353 6.88652V2.78549C12.2353 1.24449 10.9882 0 9.44979 0H2.78549C1.24449 0 0 1.24711 0 2.78549V11.7567C0 12.0217 0.215371 12.2353 0.478478 12.2353C0.588407 12.2353 0.697339 12.1974 0.784959 12.1242L3.72774 9.67202H9.44979C10.9857 9.67202 12.2353 8.42254 12.2353 6.88652ZM6.11764 7.6215C5.85341 7.6215 5.63904 7.40713 5.63904 7.1429C5.63904 6.87867 5.85341 6.6643 6.11764 6.6643C6.38175 6.6643 6.59624 6.87867 6.59624 7.1429C6.59624 7.40713 6.38175 7.6215 6.11764 7.6215ZM6.59624 5.50481V5.60501C6.59624 5.86924 6.38187 6.08362 6.11764 6.08362C5.85329 6.08362 5.63904 5.86924 5.63904 5.60501V5.09238C5.63904 4.82803 5.85329 4.61378 6.11764 4.61378C6.56035 4.61378 6.92055 4.25346 6.92055 3.81075C6.92055 3.36792 6.56035 3.00772 6.11764 3.00772C5.90277 3.00772 5.70123 3.09123 5.54967 3.24278C5.39812 3.39434 5.31461 3.59588 5.31461 3.81013C5.31461 4.07448 5.10036 4.2891 4.83601 4.2891C4.57165 4.2891 4.35741 4.07498 4.35741 3.81075C4.35741 3.34087 4.5405 2.89829 4.87278 2.56601C5.20518 2.2336 5.64702 2.05051 6.11702 2.05051C7.08818 2.05051 7.87775 2.84021 7.87775 3.81075C7.87775 4.61553 7.33496 5.29592 6.59624 5.50481Z" fill="#474751"/>
</g>
</svg>
