<svg width="20" height="20" viewBox="0 0 20 20" fill="none" xmlns="http://www.w3.org/2000/svg">
<g id="australia_5315661 1" clip-path="url(#clip0_79_2019)">
<path id="Vector" d="M20 10C20 15.5228 15.5228 20 10 20C4.47719 20 0 15.5228 0 10C0 10.0023 10 0.00113281 10 0C15.5228 0 20 4.47719 20 10Z" fill="#0052B4"/>
<g id="Group">
<path id="Vector_2" d="M10 0C9.99945 0 9.99887 3.90625e-05 9.99832 3.90625e-05L10 0Z" fill="#F0F0F0"/>
<path id="Vector_3" d="M9.97324 10H9.99999C9.99999 9.99096 9.99999 9.98229 9.99999 9.97327C9.99109 9.98221 9.98218 9.99112 9.97324 10Z" fill="#F0F0F0"/>
<path id="Vector_4" d="M10 5.21744C10 3.45787 10 2.30487 10 6.10352e-05H9.99832C4.47625 0.000959473 0 4.47772 0 10H5.21738V7.06205L8.15535 10H9.97328C9.98223 9.99112 9.99113 9.98221 10 9.97326C10 9.29955 10 8.69842 10 8.15545L7.06203 5.21744H10Z" fill="#F0F0F0"/>
</g>
<g id="Group_2">
<path id="Vector_5" d="M5.05917 1.30432C3.49514 2.19491 2.19491 3.49514 1.30432 5.05917V9.99999H3.91303V3.91307L9.99999 3.91303C9.99999 3.09026 9.99999 2.30643 9.99999 1.30432H5.05917Z" fill="#D80027"/>
<path id="Vector_6" d="M9.99999 8.77024L6.44713 5.21742H5.21741L9.99995 9.99996H9.99999C9.99999 9.99996 9.99999 9.15211 9.99999 8.77024Z" fill="#D80027"/>
</g>
<g id="Group_3">
<path id="Vector_7" d="M6.03107 11.7392L6.5799 12.8868L7.81924 12.6003L7.26424 13.7449L8.26088 14.5353L7.01998 14.815L7.02346 16.087L6.03107 15.2912L5.03873 16.087L5.04221 14.815L3.80127 14.5353L4.79795 13.7449L4.24287 12.6003L5.48229 12.8868L6.03107 11.7392Z" fill="#F0F0F0"/>
<path id="Vector_8" d="M14.9721 13.9131L15.2465 14.4869L15.8662 14.3436L15.5886 14.9159L16.087 15.3111L15.4665 15.451L15.4682 16.087L14.9721 15.6891L14.4759 16.087L14.4776 15.451L13.8572 15.3111L14.3555 14.9159L14.078 14.3436L14.6976 14.4869L14.9721 13.9131Z" fill="#F0F0F0"/>
<path id="Vector_9" d="M12.4193 7.82611L12.6936 8.39994L13.3133 8.25666L13.0358 8.82896L13.5342 9.22416L12.9137 9.364L12.9154 10L12.4193 9.60209L11.9231 10L11.9248 9.364L11.3044 9.22416L11.8027 8.82896L11.5252 8.25666L12.1449 8.39994L12.4193 7.82611Z" fill="#F0F0F0"/>
<path id="Vector_10" d="M14.9721 4.34784L15.2465 4.92167L15.8662 4.77843L15.5887 5.35073L16.0869 5.74589L15.4665 5.88577L15.4682 6.52178L14.9721 6.12386L14.4759 6.52178L14.4776 5.88577L13.8572 5.74589L14.3555 5.35073L14.078 4.77843L14.6976 4.92167L14.9721 4.34784Z" fill="#F0F0F0"/>
<path id="Vector_11" d="M17.2019 6.95654L17.4763 7.53037L18.096 7.38709L17.8185 7.95939L18.3168 8.35459L17.6963 8.49447L17.698 9.13045L17.2019 8.73256L16.7057 9.13045L16.7074 8.49447L16.087 8.35459L16.5853 7.95939L16.3078 7.38709L16.9274 7.53037L17.2019 6.95654Z" fill="#F0F0F0"/>
<path id="Vector_12" d="M15.6075 10L15.8233 10.6643H16.5218L15.9567 11.0749L16.1726 11.7391L15.6075 11.3286L15.0424 11.7391L15.2582 11.0749L14.6931 10.6643H15.3916L15.6075 10Z" fill="#F0F0F0"/>
</g>
</g>
<defs>
<clipPath id="clip0_79_2019">
<rect width="20" height="20" fill="white"/>
</clipPath>
</defs>
</svg>
