<svg width="20" height="20" viewBox="0 0 20 20" fill="none" xmlns="http://www.w3.org/2000/svg">
<g id="canada_4628640 1" clip-path="url(#clip0_79_1963)">
<path id="Vector" d="M10 20C15.5227 20 20 15.5223 20 10C20 4.47773 15.523 0 10 0C4.47695 0 0 4.47773 0 10C0 15.5223 4.47734 20 10 20Z" fill="#F0F0F0"/>
<path id="Vector_2" fill-rule="evenodd" clip-rule="evenodd" d="M1.02916e-06 10C-0.000852405 11.8809 0.529096 13.7238 1.52892 15.317C2.52875 16.9101 3.95786 18.1887 5.65195 19.0059V0.994934C2.30742 2.61173 1.02916e-06 6.03361 1.02916e-06 10ZM20 10C20.0007 8.11923 19.4706 6.27642 18.4707 4.68344C17.4708 3.09046 16.0417 1.81197 14.3477 0.994934V19.0059C16.0418 18.1888 17.471 16.9102 18.4709 15.317C19.4708 13.7239 20.0008 11.8809 20 10ZM13.4766 10.4336L11.7375 11.3059L12.1719 12.1727H10.4344V13.4766H9.56484V12.1727H7.82617L8.26133 11.3059L6.52344 10.4336L7.3918 10V9.12814L9.13086 10L8.26133 8.26173H9.13086L10 6.95626L10.8695 8.26173H11.7391L10.8699 10L12.6094 9.12775V10L13.4766 10.4336Z" fill="#D80027"/>
</g>
<defs>
<clipPath id="clip0_79_1963">
<rect width="20" height="20" fill="white"/>
</clipPath>
</defs>
</svg>
