<svg width="20" height="20" viewBox="0 0 20 20" fill="none" xmlns="http://www.w3.org/2000/svg">
<path d="M10 20.0001C15.5462 20.0001 20 15.5463 20 10.0001C20 4.45393 15.5462 0 10 0C4.45384 0 0 4.45393 0 10.0001C0 15.5463 4.45384 20.0001 10 20.0001Z" fill="#F1F2F2"/>
<path d="M6.83487 12.1706C7.02511 12.3286 7.12088 12.5731 7.15658 12.813C7.17596 12.9248 7.15658 13.0401 7.11414 13.1474C6.9573 13.0459 6.86845 12.8718 6.82924 12.6953C6.79049 12.5223 6.77942 12.3413 6.83847 12.1706" fill="#3AB37C"/>
<path d="M12.4177 12.6492C12.4675 12.4693 12.5561 12.2894 12.7026 12.1706C12.7755 12.4001 12.7432 12.6526 12.6509 12.8718C12.6085 12.9871 12.523 13.0793 12.4249 13.1474C12.3557 12.9871 12.3695 12.8106 12.4157 12.6492" fill="#3AB37C"/>
<path d="M5.96994 12.3378C6.2029 12.3678 6.41278 12.4958 6.57996 12.6561C6.69067 12.7611 6.7737 12.8983 6.77721 13.0528C6.41278 12.9733 6.02299 12.738 5.96994 12.3378Z" fill="#3AB37C"/>
<path d="M13.0117 12.6065C13.1685 12.4728 13.3588 12.3644 13.5721 12.3378C13.5159 12.738 13.1258 12.9733 12.7626 13.0528C12.7626 12.8718 12.8779 12.7184 13.0117 12.6065Z" fill="#3AB37C"/>
<path d="M7.25809 12.8395L7.33374 12.5731C7.55978 12.806 7.72013 13.1808 7.54022 13.4818C7.38218 13.3042 7.26805 13.0816 7.25763 12.8395" fill="#3AB37C"/>
<path d="M11.9979 13.4818C11.818 13.1808 11.9785 12.8037 12.2055 12.5731C12.2608 12.6665 12.2931 12.7668 12.2802 12.8717C12.2608 13.1012 12.1487 13.3146 11.9976 13.4818" fill="#3AB37C"/>
<path d="M7.78627 12.889C7.9766 13.0493 8.12071 13.2788 8.14378 13.5314L8.07458 13.8197C7.7967 13.6075 7.70785 13.2166 7.78627 12.889Z" fill="#3AB37C"/>
<path d="M11.3948 13.5314C11.4179 13.2823 11.5586 13.0494 11.7523 12.8925C11.8344 13.2189 11.7431 13.6098 11.4674 13.8197L11.3945 13.5314" fill="#3AB37C"/>
<path d="M6.07834 13.2097C6.42892 13.1347 6.83487 13.1866 7.10814 13.4357C6.97326 13.5476 6.78984 13.5775 6.62267 13.5372C6.41619 13.4887 6.2063 13.3873 6.07834 13.2097Z" fill="#3AB37C"/>
<path d="M8.24876 13.1381C8.42175 13.295 8.5797 13.4852 8.64548 13.7147C8.67777 13.8301 8.6584 13.9512 8.60489 14.0584C8.395 13.905 8.28428 13.6559 8.23474 13.4034L8.24858 13.1381" fill="#3AB37C"/>
<path d="M10.9104 13.6628C10.9852 13.4553 11.1296 13.2823 11.291 13.1381C11.3464 13.3446 11.2809 13.5568 11.1918 13.7413C11.1328 13.8658 11.0419 13.9765 10.9335 14.0584C10.8708 13.9385 10.8615 13.7943 10.9104 13.6628Z" fill="#3AB37C"/>
<path d="M12.4315 13.4357C12.7026 13.1866 13.1096 13.1347 13.4602 13.2096C13.3322 13.3907 13.1224 13.4887 12.9136 13.5372C12.7487 13.5776 12.5653 13.5476 12.4315 13.4357Z" fill="#3AB37C"/>
<path d="M8.74924 13.3192C9.09401 13.4783 9.24514 13.8923 9.18166 14.2521C8.91641 14.0261 8.7008 13.679 8.74924 13.3192Z" fill="#3AB37C"/>
<path d="M10.3557 14.2521C10.2939 13.8923 10.4443 13.4783 10.7916 13.3192C10.8377 13.679 10.6221 14.0261 10.3557 14.2521Z" fill="#3AB37C"/>
<path d="M6.5961 13.784C6.67452 13.7079 6.77028 13.6364 6.88441 13.626C7.09089 13.6029 7.29496 13.6791 7.49452 13.7275C7.37339 13.8786 7.1658 13.9074 6.98359 13.9074C6.8452 13.9074 6.70801 13.8682 6.5961 13.784Z" fill="#3AB37C"/>
<path d="M12.044 13.7275C12.2447 13.6791 12.4477 13.6029 12.6576 13.626C12.7695 13.6364 12.864 13.7079 12.9425 13.784C12.759 13.9282 12.5065 13.9282 12.2897 13.8751L12.044 13.7275" fill="#3AB37C"/>
<path d="M7.13702 14.2499C7.33077 13.9639 7.74012 13.8163 8.055 13.9812C7.82205 14.213 7.46565 14.3675 7.13702 14.2499Z" fill="#3AB37C"/>
<path d="M11.5101 13.9708C11.8215 13.8232 12.2147 13.9708 12.4015 14.2499C12.1167 14.3572 11.8018 14.2434 11.5724 14.0619L11.5106 13.9709" fill="#3AB37C"/>
<path d="M7.66522 14.5047C7.88775 14.2649 8.25218 14.1565 8.56586 14.2649C8.50497 14.3629 8.42867 14.4586 8.32026 14.5117C8.11729 14.6166 7.87161 14.5866 7.66522 14.5043" fill="#3AB37C"/>
<path d="M10.9761 14.2649C11.2875 14.1565 11.6508 14.2649 11.8734 14.5047C11.667 14.5832 11.4213 14.6166 11.2183 14.5121C11.1134 14.4591 11.0373 14.3634 10.9761 14.2653" fill="#3AB37C"/>
<path d="M8.87152 14.2626C9.17016 14.3318 9.46539 14.4263 9.76985 14.4621C10.0743 14.4263 10.3695 14.3318 10.6683 14.2649C10.4341 14.3537 10.1989 14.4356 9.95898 14.5117C10.1078 14.5532 10.2508 14.6224 10.38 14.7077C10.1724 14.6719 9.97633 14.6028 9.76985 14.5705C9.56347 14.6028 9.36622 14.672 9.16324 14.7077C9.2901 14.6201 9.432 14.5532 9.57961 14.5117C9.34315 14.4356 9.10448 14.3537 8.87152 14.2626Z" fill="#3AB37C"/>
<path d="M8.17606 14.8392C8.36639 14.5635 8.70083 14.3894 9.03527 14.4136C8.96054 14.5578 8.868 14.7042 8.71347 14.7769C8.5474 14.8588 8.35716 14.8519 8.17606 14.8392Z" fill="#3AB37C"/>
<path d="M10.5033 14.4136C10.8377 14.3894 11.1757 14.5635 11.3625 14.8392C11.1665 14.8518 10.9531 14.8587 10.779 14.7503C10.6475 14.6754 10.5725 14.5404 10.5033 14.4136" fill="#3AB37C"/>
<path fill-rule="evenodd" clip-rule="evenodd" d="M4.79977 8.76605L4.70508 9.05806L4.91029 9.38957V9.84725L5.03659 10.1077L5.21803 10.2418L5.32855 10.7705L5.69947 10.9679L6.18876 11.1652L6.40186 11.3388L6.78851 11.4492L7.2778 11.3309L7.63346 11.2723L7.91248 11.596L7.96828 11.875L8.34774 11.8862L8.19149 11.5513L8.64908 11.0938L9.28524 11.0603L9.57542 11.0156L9.63123 10.9487L9.9214 10.9822L10.4013 10.6808L10.7473 10.5692L10.9705 10.346L11.1826 10.3572L11.3611 10.1786L11.3723 9.65403L11.696 9.43081L12.1982 9.39733L12.447 9.5868L12.5969 9.57895L12.6206 9.42898L12.9442 9.3737L13.2835 9.4132L13.4492 9.52367L13.4176 9.30273L13.2204 9.03443L12.9915 8.82918L12.8889 8.60039L12.6364 8.29259L12.5732 7.93746L12.6758 7.63751L12.7232 7.5981L12.7942 7.43235L13.0309 7.3455L13.3229 7.36922L13.5755 6.93517L13.9148 6.63523L14.4909 6.3985L14.7596 6.1105L14.9828 5.98773L15.1 5.78126L15.4906 5.5134L15.7752 5.43528L15.8868 5.12836L15.4627 5.37389L15.1111 5.43528L15.0609 5.53572L14.7819 5.58595L14.5977 5.80358L14.1234 6.02121L13.9337 6.00447L13.6602 6.33371L12.447 6.89567L11.8866 6.93517L11.4842 7.24296L11.1527 7.23512L10.8686 7.3455L10.2688 7.39294L9.42436 7.32981L9.15607 7.21925L8.98948 7.28238L8.84439 7.23215L8.5877 7.27679L7.84551 7.03684L7.89573 7.43863L7.9069 7.96876L7.76739 8.29242L7.58323 8.46541L7.33212 8.51005L6.84105 8.28126L6.52855 8.20871L6.06538 8.35938L5.90913 8.52679L5.8031 8.83371L5.42922 9.07925L5.25623 9.11273L5.0944 9.07367L4.86002 8.88394L4.79977 8.76605Z" fill="#FD982F"/>
</svg>
