<?xml version="1.0" encoding="UTF-8"?>
<svg xmlns="http://www.w3.org/2000/svg" xmlns:xlink="http://www.w3.org/1999/xlink" width="20px" height="20px" viewBox="0 0 20 20" version="1.1">
<g id="surface1">
<path style=" stroke:none;fill-rule:nonzero;fill:rgb(94.117647%,94.117647%,94.117647%);fill-opacity:1;" d="M 10 20 C 15.523438 20 20 15.523438 20 10 C 20 4.476562 15.523438 0 10 0 C 4.476562 0 0 4.476562 0 10 C 0 15.523438 4.476562 20 10 20 Z M 10 20 "/>
<path style=" stroke:none;fill-rule:nonzero;fill:rgb(84.705882%,0%,15.294118%);fill-opacity:1;" d="M 9.128906 10 C 9.128906 10 2.933594 17.074219 2.929688 17.070312 C 4.738281 18.878906 7.238281 20 10 20 C 15.523438 20 20 15.523438 20 10 Z M 9.128906 10 "/>
<path style=" stroke:none;fill-rule:nonzero;fill:rgb(0%,32.156863%,70.588235%);fill-opacity:1;" d="M 2.929688 2.929688 C -0.976562 6.835938 -0.976562 13.164062 2.929688 17.070312 C 4.542969 15.457031 6.09375 13.90625 10 10 Z M 2.929688 2.929688 "/>
</g>
</svg>
