<svg width="20" height="20" viewBox="0 0 20 20" fill="none" xmlns="http://www.w3.org/2000/svg">
<g id="germany_5372781 1" clip-path="url(#clip0_79_2042)">
<g id="Group">
<path id="Vector" fill-rule="evenodd" clip-rule="evenodd" d="M20 10C20 15.5229 15.5229 20 10 20C4.47714 20 0 15.5229 0 10C0 4.47714 4.47714 0 10 0C15.5229 0 20 4.47714 20 10Z" fill="#E92B2B"/>
<path id="Vector_2" fill-rule="evenodd" clip-rule="evenodd" d="M19.1983 6.07143H0.800781C2.32738 2.50151 5.87134 0 9.99955 0C14.1278 0 17.6717 2.50151 19.1983 6.07143Z" fill="#1D1D1D"/>
<path id="Vector_3" fill-rule="evenodd" clip-rule="evenodd" d="M19.1983 13.9286C17.6717 17.4985 14.1278 20 9.99955 20C5.87134 20 2.32738 17.4985 0.800781 13.9286H19.1983Z" fill="#FFD02B"/>
</g>
</g>
<defs>
<clipPath id="clip0_79_2042">
<rect width="20" height="20" fill="white"/>
</clipPath>
</defs>
</svg>
