<svg width="20" height="20" viewBox="0 0 20 20" fill="none" xmlns="http://www.w3.org/2000/svg">
<g id="estonia_9906463 1" clip-path="url(#clip0_79_2006)">
<g id="Group">
<g id="Estonia">
<path id="Vector" d="M9.96678 20C15.4713 20 19.9336 15.5228 19.9336 10C19.9336 4.47715 15.4713 0 9.96678 0C4.46228 0 0 4.47715 0 10C0 15.5228 4.46228 20 9.96678 20Z" fill="#0071BC"/>
<path id="Vector_2" d="M19.9336 10C19.9336 15.5333 15.4817 20 9.96678 20C4.45183 20 0 15.5333 0 10H19.9336Z" fill="#F0F0F0"/>
<path id="Vector_3" d="M0 10C0 11.1334 0.199336 12.2667 0.598007 13.3334H19.402C20.1993 11.2 20.1993 8.80002 19.402 6.66669H0.598007C0.199336 7.73335 0 8.86669 0 10Z" fill="black"/>
</g>
</g>
</g>
<defs>
<clipPath id="clip0_79_2006">
<rect width="20" height="20" fill="white"/>
</clipPath>
</defs>
</svg>
