<svg width="20" height="20" viewBox="0 0 20 20" fill="none" xmlns="http://www.w3.org/2000/svg">
<path fill-rule="evenodd" clip-rule="evenodd" d="M16.0883 2.06736L16.0889 2.06785V2.06674L16.0883 2.06736ZM16.0883 2.06736C15.0662 1.28205 13.8886 0.688887 12.6089 0.344513V5.54674L16.0883 2.06736ZM0.344482 7.39173C0.688925 6.11228 1.28115 4.93451 2.0667 3.91229L5.5467 7.39173H0.344482ZM17.9334 3.91229C18.7301 4.94793 19.3153 6.13017 19.6556 7.39173H14.4539L17.9334 3.91229ZM0.344632 12.6095H5.54615L2.0667 16.0889C1.28238 15.0669 0.689097 13.8893 0.344632 12.6095ZM3.91226 17.9334C4.93448 18.719 6.11226 19.3112 7.3917 19.6556V14.4534L3.91226 17.9334ZM3.91226 2.06674C4.94789 1.27001 6.13015 0.684826 7.3917 0.344513V5.54618L3.91226 2.06674ZM12.6084 19.6556C13.8699 19.3153 15.0522 18.7301 16.0878 17.9334L12.6084 14.4539V19.6556ZM17.9323 16.0884L14.4528 12.6089H19.6545C19.31 13.8884 18.7178 15.0662 17.9323 16.0884Z" fill="#0052B4"/>
<path fill-rule="evenodd" clip-rule="evenodd" d="M19.9156 8.69557H11.3045V0.0844686C10.4385 -0.0283189 9.56158 -0.0283189 8.69558 0.0844686V8.69557H0.0844687C-0.028319 9.56157 -0.028319 10.4385 0.0844687 11.3045H8.69558V19.9156C9.56158 20.0283 10.4385 20.0283 11.3045 19.9156V11.3045H19.9156C20.0284 10.4385 20.0284 9.56157 19.9156 8.69557ZM12.6089 12.6089L17.0711 17.0711L17.6589 16.4289L13.8384 12.6083H12.6084L12.6089 12.6089ZM2.92891 17.0711L7.39113 12.6089H7.39169V13.8383L3.57113 17.6589L2.92891 17.0711ZM7.39113 7.39113L2.92891 2.92891L2.34113 3.57114L6.16169 7.39168H7.39169L7.39113 7.39113ZM17.0711 2.92891L12.6089 7.39113L12.6084 7.39168V6.16168L16.4289 2.34114L17.0711 2.92891Z" fill="#D80027"/>
</svg>
