<svg width="20" height="20" viewBox="0 0 20 20" fill="none" xmlns="http://www.w3.org/2000/svg">
<path d="M10 20C15.5227 20 20 15.5223 20 10C20 4.47773 15.5227 0 10 0C4.47734 0 0 4.47773 0 10C0 15.5223 4.47734 20 10 20Z" fill="#D80027"/>
<path fill-rule="evenodd" clip-rule="evenodd" d="M13.7947 4.24053L13.887 3.00692V3L13.0894 3.94482L11.9393 3.48579L12.5939 4.53579L11.7963 5.48061L13.0003 5.18535L13.6508 6.23535L13.7384 4.99436L14.9425 4.6991L13.7947 4.24053ZM6.31646 4.89655L7.33549 8.03364H10.6334L7.96702 9.97679L8.98651 13.1139L6.31646 11.1717L3.64641 13.1139L4.67005 9.97679L2 8.03456H5.29651L6.31646 4.89655ZM16.3628 10.0866L16.7642 11.2612L18 11.2482L17.0082 11.9827L17.4049 13.1572L16.3946 12.4357L15.4028 13.1771L15.7719 11.9961L14.7616 11.2745L15.9988 11.2547L16.3628 10.0737V10.0866ZM13.678 12.7623L13.005 13.7999L11.8111 13.4829L12.5907 14.4518L11.9213 15.4884L13.0746 15.0423L13.8542 16L13.7846 14.7641L14.9425 14.318L13.7431 13.995L13.6785 12.7623H13.678ZM15.514 6.08911L16.3997 6.94858L17.4926 6.37145L16.9482 7.48696L17.8339 8.34643L16.6115 8.16928L16.0671 9.27648L15.8554 8.06271L14.6283 7.88555L15.7258 7.30842L15.514 6.08911Z" fill="#FFDA44"/>
</svg>
