<svg width="20" height="20" viewBox="0 0 20 20" fill="none" xmlns="http://www.w3.org/2000/svg">
<path d="M10 20C15.5228 20 20 15.5228 20 10C20 4.47715 15.5228 0 10 0C4.47715 0 0 4.47715 0 10C0 15.5228 4.47715 20 10 20Z" fill="#F0F0F0"/>
<path fill-rule="evenodd" clip-rule="evenodd" d="M16.225 2.17395H3.78055C2.86551 2.90268 2.08471 3.78556 1.47333 4.78284H18.5333C17.9218 3.78563 17.1411 2.90276 16.2261 2.17395H16.225ZM11.2556 7.82618H13.7656H13.7667L12.5111 10.0001L13.7656 12.174H11.2556L10 14.3478L8.74555 12.174H6.23444L7.49 10.0001L6.23333 7.82618H8.74444L10 5.65229L11.2556 7.82618ZM10.7711 11.3356L11.5422 10.0001L10.7717 8.66451H9.22944L8.45833 10.0001L9.22888 11.3356H10.7711ZM10 7.32896L10.2872 7.82618H9.71333L10 7.32896ZM8.26111 8.66451H7.68722L7.97388 9.16173L8.26111 8.66451ZM7.68722 11.3356L7.97444 10.8384L8.26166 11.3356H7.68777H7.68722ZM9.71333 12.174L10 12.6712L10.2872 12.174H9.71333ZM12.3128 11.3356H11.7389L12.0261 10.8384L12.3128 11.3356ZM12.3128 8.66451H11.7389L12.0256 9.16173L12.3128 8.66451ZM16.22 17.8262H3.77555H3.775C2.86003 17.0973 2.07925 16.2145 1.46777 15.2173H18.5272C17.9158 16.2146 17.1351 17.0975 16.22 17.8262Z" fill="#0052B4"/>
</svg>
