<svg width="20" height="20" viewBox="0 0 20 20" fill="none" xmlns="http://www.w3.org/2000/svg">
<mask id="mask0_196_1322" style="mask-type:luminance" maskUnits="userSpaceOnUse" x="0" y="0" width="20" height="20">
<path d="M20 10C20 12.6522 18.9464 15.1957 17.0711 17.0711C15.1957 18.9464 12.6522 20 10 20C7.34784 20 4.8043 18.9464 2.92893 17.0711C1.05357 15.1957 0 12.6522 0 10C0 7.34784 1.05357 4.8043 2.92893 2.92893C4.8043 1.05357 7.34784 0 10 0C12.6522 0 15.1957 1.05357 17.0711 2.92893C18.9464 4.8043 20 7.34784 20 10Z" fill="white"/>
</mask>
<g mask="url(#mask0_196_1322)">
<path d="M0.00494385 19.9979L0.00494385 13.3321H20.0023V19.9979H0.00494385Z" fill="#27AE60"/>
<path d="M0.00494385 13.3322L0.00494385 6.66638L20.0023 6.66638V13.3322L0.00494385 13.3322Z" fill="white"/>
<path d="M0.00494385 6.66638L0.00494385 0.000604947L20.0023 0.000604947V6.66638L0.00494385 6.66638Z" fill="#F39C12"/>
<path d="M10.0001 12.9171C11.6101 12.9171 12.9153 11.6119 12.9153 10.0019C12.9153 8.39187 11.6101 7.08667 10.0001 7.08667C8.39003 7.08667 7.08484 8.39187 7.08484 10.0019C7.08484 11.6119 8.39003 12.9171 10.0001 12.9171Z" fill="#000088"/>
<path d="M10.0001 12.5528C11.4089 12.5528 12.5509 11.4107 12.5509 10.0019C12.5509 8.59316 11.4089 7.45111 10.0001 7.45111C8.5913 7.45111 7.44925 8.59316 7.44925 10.0019C7.44925 11.4107 8.5913 12.5528 10.0001 12.5528Z" fill="white"/>
<path d="M10.0001 10.5121C10.2819 10.5121 10.5103 10.2837 10.5103 10.0019C10.5103 9.72017 10.2819 9.49176 10.0001 9.49176C9.71834 9.49176 9.48993 9.72017 9.48993 10.0019C9.48993 10.2837 9.71834 10.5121 10.0001 10.5121Z" fill="#000088"/>
<path d="M12.5124 10.4613C12.5822 10.4705 12.6463 10.4214 12.6555 10.3516C12.6648 10.2817 12.6156 10.2177 12.5458 10.2084C12.476 10.1992 12.4119 10.2483 12.4027 10.3182C12.3934 10.388 12.4426 10.4521 12.5124 10.4613Z" fill="#000088"/>
<path d="M10.0001 12.5528L10.0875 11.0223L10.0001 10.2935L9.91263 11.0223L10.0001 12.5528Z" fill="#000088"/>
<path d="M12.308 11.0964C12.373 11.1234 12.4476 11.0925 12.4746 11.0275C12.5016 10.9624 12.4708 10.8878 12.4057 10.8608C12.3407 10.8338 12.266 10.8646 12.239 10.9297C12.212 10.9947 12.2429 11.0694 12.308 11.0964Z" fill="#000088"/>
<path d="M9.33944 12.466L9.82032 11.0102L9.9246 10.2835L9.65136 10.9649L9.33944 12.466Z" fill="#000088"/>
<path d="M11.946 11.6559C12.0019 11.6988 12.082 11.6883 12.1249 11.6324C12.1678 11.5766 12.1573 11.4965 12.1014 11.4536C12.0456 11.4107 11.9655 11.4212 11.9226 11.4771C11.8797 11.5329 11.8902 11.613 11.946 11.6559Z" fill="#000088"/>
<path d="M8.72468 12.2109L9.56567 10.9292L9.85433 10.2544L9.41419 10.8418L8.72468 12.2109Z" fill="#000088"/>
<path d="M11.4515 12.1037C11.4943 12.1596 11.5744 12.1702 11.6303 12.1273C11.6862 12.0845 11.6968 12.0044 11.654 11.9485C11.6111 11.8926 11.5311 11.882 11.4751 11.9249C11.4192 11.9677 11.4086 12.0478 11.4515 12.1037Z" fill="#000088"/>
<path d="M8.19593 11.8055L9.34028 10.7852L9.79392 10.208L9.2166 10.6615L8.19593 11.8055Z" fill="#000088"/>
<path d="M10.8584 12.4072C10.8853 12.4723 10.9599 12.5033 11.025 12.4764C11.09 12.4494 11.121 12.3748 11.0941 12.3098C11.0671 12.2447 10.9926 12.2137 10.9275 12.2406C10.8624 12.2676 10.8314 12.3422 10.8584 12.4072Z" fill="#000088"/>
<path d="M7.79106 11.2774L9.1602 10.5878L9.74762 10.1477L9.07274 10.4364L7.79106 11.2774Z" fill="#000088"/>
<path d="M10.2062 12.5478C10.2154 12.6176 10.2794 12.6668 10.3493 12.6577C10.4191 12.6485 10.4683 12.5845 10.4592 12.5146C10.45 12.4448 10.386 12.3956 10.3161 12.4047C10.2463 12.4139 10.1971 12.4779 10.2062 12.5478Z" fill="#000088"/>
<path d="M7.5359 10.6618L9.03707 10.3504L9.71852 10.0773L8.99182 10.1814L7.5359 10.6618Z" fill="#000088"/>
<path d="M9.54072 12.5141C9.53149 12.5839 9.58061 12.648 9.65044 12.6572C9.72027 12.6665 9.78436 12.6173 9.79359 12.5475C9.80282 12.4777 9.7537 12.4136 9.68387 12.4044C9.61404 12.3951 9.54995 12.4443 9.54072 12.5141Z" fill="#000088"/>
<path d="M7.44941 10.0019L8.97984 10.0894L9.70862 10.0019L8.97984 9.91449L7.44941 10.0019Z" fill="#000088"/>
<path d="M8.90571 12.3097C8.87871 12.3748 8.90956 12.4494 8.97462 12.4764C9.03967 12.5034 9.1143 12.4725 9.1413 12.4075C9.1683 12.3424 9.13745 12.2678 9.07239 12.2408C9.00733 12.2138 8.93271 12.2446 8.90571 12.3097Z" fill="#000088"/>
<path d="M7.53613 9.34132L8.99188 9.82219L9.71853 9.92646L9.03718 9.65323L7.53613 9.34132Z" fill="#000088"/>
<path d="M8.34605 11.9482C8.30314 12.0041 8.31365 12.0841 8.36951 12.1271C8.42538 12.17 8.50546 12.1595 8.54837 12.1036C8.59128 12.0477 8.58078 11.9677 8.52491 11.9247C8.46904 11.8818 8.38897 11.8923 8.34605 11.9482Z" fill="#000088"/>
<path d="M7.79076 8.72649L9.07265 9.56749L9.74762 9.85615L9.16011 9.41599L7.79076 8.72649Z" fill="#000088"/>
<path d="M7.89825 11.4537C7.84233 11.4965 7.83174 11.5766 7.87459 11.6325C7.91744 11.6884 7.9975 11.699 8.05342 11.6561C8.10933 11.6133 8.11993 11.5332 8.07708 11.4773C8.03423 11.4214 7.95416 11.4108 7.89825 11.4537Z" fill="#000088"/>
<path d="M8.19623 8.19766L9.21671 9.34208L9.79397 9.79574L9.34043 9.21838L8.19623 8.19766Z" fill="#000088"/>
<path d="M7.59453 10.8603C7.52944 10.8873 7.4985 10.9619 7.52542 11.0269C7.55235 11.092 7.62695 11.123 7.69204 11.0961C7.75714 11.0691 7.78808 10.9945 7.76115 10.9294C7.73423 10.8643 7.65963 10.8334 7.59453 10.8603Z" fill="#000088"/>
<path d="M8.72449 7.79271L9.41411 9.16196L9.85431 9.74942L9.5656 9.07449L8.72449 7.79271Z" fill="#000088"/>
<path d="M7.45401 10.2081C7.38416 10.2173 7.33496 10.2813 7.34411 10.3512C7.35326 10.421 7.4173 10.4702 7.48715 10.4611C7.55699 10.4519 7.6062 10.3879 7.59705 10.318C7.5879 10.2482 7.52386 10.199 7.45401 10.2081Z" fill="#000088"/>
<path d="M9.34005 7.53752L9.65158 9.03882L9.92466 9.72032L9.82057 8.99356L9.34005 7.53752Z" fill="#000088"/>
<path d="M7.48759 9.54265C7.41775 9.53342 7.35366 9.58255 7.34443 9.65239C7.3352 9.72223 7.38434 9.78632 7.45418 9.79555C7.52401 9.80478 7.58811 9.75564 7.59733 9.6858C7.60656 9.61597 7.55743 9.55187 7.48759 9.54265Z" fill="#000088"/>
<path d="M9.99994 7.45092L9.91258 8.98154L10.0001 9.71039L10.0875 8.98153L9.99994 7.45092Z" fill="#000088"/>
<path d="M7.69196 8.90757C7.6269 8.88057 7.55227 8.91143 7.52527 8.9765C7.49827 9.04156 7.52913 9.1162 7.59419 9.14319C7.65926 9.17019 7.73389 9.13933 7.76089 9.07427C7.78789 9.0092 7.75703 8.93457 7.69196 8.90757Z" fill="#000088"/>
<path d="M10.6606 7.53765L10.1798 8.99359L10.0756 9.72033L10.3488 9.03889L10.6606 7.53765Z" fill="#000088"/>
<path d="M8.0539 8.34793C7.99803 8.30502 7.91796 8.31552 7.87505 8.37139C7.83214 8.42725 7.84264 8.50733 7.89851 8.55024C7.95438 8.59314 8.03445 8.58264 8.07736 8.52678C8.12027 8.47091 8.10976 8.39084 8.0539 8.34793Z" fill="#000088"/>
<path d="M11.2754 7.79265L10.4345 9.07448L10.1458 9.74943L10.586 9.16193L11.2754 7.79265Z" fill="#000088"/>
<path d="M8.54842 7.90015C8.50557 7.84424 8.42551 7.83365 8.3696 7.87649C8.31368 7.91934 8.30309 7.9994 8.34594 8.05532C8.38879 8.11123 8.46885 8.12182 8.52476 8.07897C8.58068 8.03613 8.59127 7.95606 8.54842 7.90015Z" fill="#000088"/>
<path d="M11.8042 8.19813L10.6599 9.21857L10.2062 9.79581L10.7836 9.34229L11.8042 8.19813Z" fill="#000088"/>
<path d="M9.14183 7.59622C9.11491 7.53112 9.04032 7.50017 8.97522 7.5271C8.91012 7.55402 8.87917 7.62861 8.90609 7.69371C8.93301 7.75881 9.00761 7.78976 9.07271 7.76284C9.13781 7.73592 9.16876 7.66132 9.14183 7.59622Z" fill="#000088"/>
<path d="M12.2094 8.72648L10.8401 9.41598L10.2526 9.85614L10.9275 9.56748L12.2094 8.72648Z" fill="#000088"/>
<path d="M9.79407 7.45577C9.78493 7.38592 9.72089 7.33671 9.65104 7.34585C9.58119 7.355 9.53198 7.41903 9.54112 7.48888C9.55027 7.55873 9.6143 7.60794 9.68415 7.5988C9.754 7.58966 9.80321 7.52562 9.79407 7.45577Z" fill="#000088"/>
<path d="M12.4646 9.34207L10.9632 9.65346L10.2817 9.92649L11.0085 9.82246L12.4646 9.34207Z" fill="#000088"/>
<path d="M10.4597 7.48946C10.4689 7.41962 10.4198 7.35552 10.3499 7.34628C10.2801 7.33705 10.216 7.38617 10.2068 7.45601C10.1975 7.52585 10.2466 7.58995 10.3165 7.59918C10.3863 7.60842 10.4504 7.55929 10.4597 7.48946Z" fill="#000088"/>
<path d="M12.5511 10.0021L11.0205 9.91454L10.2916 10.002L11.0205 10.0895L12.5511 10.0021Z" fill="#000088"/>
<path d="M11.0947 7.69392C11.1217 7.62886 11.0909 7.55423 11.0258 7.52722C10.9608 7.50021 10.8861 7.53106 10.8591 7.59612C10.8321 7.66119 10.863 7.73582 10.928 7.76283C10.9931 7.78983 11.0677 7.75899 11.0947 7.69392Z" fill="#000088"/>
<path d="M12.4643 10.6628L11.0084 10.1818L10.2817 10.0774L10.9631 10.3507L12.4643 10.6628Z" fill="#000088"/>
<path d="M11.6543 8.05585C11.6972 7.99999 11.6867 7.91991 11.6309 7.877C11.575 7.83408 11.4949 7.84458 11.452 7.90044C11.4091 7.9563 11.4196 8.03638 11.4754 8.07929C11.5313 8.12221 11.6114 8.11171 11.6543 8.05585Z" fill="#000088"/>
<path d="M12.2093 11.2775L10.9275 10.4364L10.2526 10.1477L10.84 10.5879L12.2093 11.2775Z" fill="#000088"/>
<path d="M12.102 8.55046C12.158 8.50762 12.1686 8.42756 12.1257 8.37164C12.0829 8.31572 12.0028 8.30512 11.9469 8.34796C11.891 8.39081 11.8804 8.47087 11.9232 8.52679C11.9661 8.5827 12.0461 8.5933 12.102 8.55046Z" fill="#000088"/>
<path d="M11.8038 11.8063L10.7834 10.6618L10.2062 10.2081L10.6597 10.7855L11.8038 11.8063Z" fill="#000088"/>
<path d="M12.4057 9.14372C12.4708 9.1168 12.5017 9.04221 12.4748 8.97711C12.4479 8.91201 12.3733 8.88106 12.3082 8.90798C12.2431 8.9349 12.2122 9.0095 12.2391 9.07459C12.266 9.13969 12.3406 9.17064 12.4057 9.14372Z" fill="#000088"/>
<path d="M11.2754 12.2112L10.586 10.8419L10.1458 10.2544L10.4345 10.9294L11.2754 12.2112Z" fill="#000088"/>
<path d="M12.5461 9.79589C12.616 9.78675 12.6652 9.72271 12.6561 9.65287C12.6469 9.58302 12.5829 9.53381 12.513 9.54295C12.4432 9.5521 12.394 9.61613 12.4031 9.68598C12.4123 9.75583 12.4763 9.80504 12.5461 9.79589Z" fill="#000088"/>
<path d="M10.6599 12.4663L10.3485 10.965L10.0755 10.2835L10.1795 11.0103L10.6599 12.4663Z" fill="#000088"/>
</g>
</svg>
