<svg width="20" height="20" viewBox="0 0 20 20" fill="none" xmlns="http://www.w3.org/2000/svg">
<g id="circle_10576616 1" clip-path="url(#clip0_79_1973)">
<g id="layer1">
<g id="Clip path group">
<mask id="mask0_79_1973" style="mask-type:luminance" maskUnits="userSpaceOnUse" x="0" y="-1" width="20" height="21">
<g id="clipPath3146">
<path id="path3148" d="M0.000509924 9.88979C0.0272576 7.24219 1.10292 4.71326 2.99161 2.85762C4.88029 1.00198 7.42781 -0.0288846 10.0755 -0.00890057C12.7231 0.0110834 15.2548 1.08029 17.1153 2.96422C18.9757 4.84816 20.0131 7.39304 19.9999 10.0407C19.9867 12.6885 18.9239 15.2228 17.0447 17.0881C15.1656 18.9534 12.6233 19.9972 9.97561 19.9908C7.32788 19.9843 4.79078 18.9281 2.92072 17.0537C1.05067 15.1793 0.000307568 12.6397 0 9.99198" fill="white"/>
</g>
</mask>
<g mask="url(#mask0_79_1973)">
<g id="g3139">
<path id="rect4416" d="M18.8615 20.2031C19.6064 20.2031 20.2057 19.6025 20.2057 18.8576V1.12548C20.2057 0.380546 19.6064 -0.218689 18.8615 -0.218689H1.12937C0.384439 -0.218689 -0.216125 0.380546 -0.216125 1.12548V18.8576C-0.216125 19.6025 0.384439 20.2031 1.12937 20.2031H18.8615Z" fill="white"/>
<path id="rect4416-0" d="M20.2058 1.12548C20.2058 0.380546 19.5915 -0.218689 18.8296 -0.218689H13.3985V20.2031H18.8296C19.5915 20.2031 20.2058 19.6025 20.2058 18.8576V1.12548Z" fill="#C0392B"/>
<path id="rect4416-0-1" d="M-0.216125 18.8589C-0.216125 19.6039 0.398116 20.2031 1.16001 20.2031H6.59113V-0.218689H1.16001C0.398116 -0.218689 -0.216125 0.381875 -0.216125 1.12681V18.8589Z" fill="#27AE60"/>
</g>
</g>
</g>
</g>
</g>
<defs>
<clipPath id="clip0_79_1973">
<rect width="20" height="20" fill="white"/>
</clipPath>
</defs>
</svg>
