<svg width="21" height="21" viewBox="0 0 21 21" fill="none" xmlns="http://www.w3.org/2000/svg">
<path d="M19.4869 6.68277H0.669434C2.05947 2.83139 5.74676 0.078125 10.0782 0.078125C14.4096 0.078125 18.0969 2.83139 19.4869 6.68277Z" fill="#ED1C24"/>
<path d="M20.0781 10.0781C20.0781 11.2847 19.8646 12.4417 19.4729 13.5123H0.68344C0.291708 12.4417 0.078125 11.2847 0.078125 10.0781C0.078125 8.88631 0.286353 7.74269 0.669385 6.68277H19.4869C19.8699 7.74269 20.0781 8.88631 20.0781 10.0781Z" fill="#F1F2F2"/>
<path d="M19.4729 13.5123C18.0721 17.3436 14.3949 20.0781 10.0781 20.0781C5.7614 20.0781 2.08412 17.3436 0.683411 13.5123H19.4729Z" fill="#21409A"/>
</svg>
