<svg width="20" height="20" viewBox="0 0 20 20" fill="none" xmlns="http://www.w3.org/2000/svg">
<g clip-path="url(#clip0_79_1880)">
<path d="M10 20C15.5223 20 20 15.5223 20 10C20 4.47773 15.5223 0 10 0C4.47773 0 0 4.47773 0 10C0 15.5223 4.47773 20 10 20Z" fill="#F0F0F0"/>
<path d="M19.3777 13.4766C20.2074 11.2323 20.2074 8.76536 19.3777 6.5211H0.62227C-0.207423 8.76536 -0.207423 11.2323 0.62227 13.4766L10 14.3504L19.3777 13.4766Z" fill="#0052B4"/>
<path d="M9.99999 20C14.3 20 17.9664 17.2891 19.3777 13.4766H0.622253C2.03514 17.2891 5.69999 20 9.99999 20Z" fill="#D80027"/>
</g>
<defs>
<clipPath id="clip0_79_1880">
<rect width="20" height="20" fill="white"/>
</clipPath>
</defs>
</svg>
