<svg width="20" height="20" viewBox="0 0 20 20" fill="none" xmlns="http://www.w3.org/2000/svg">
<g clip-path="url(#clip0_79_1891)">
<path d="M10 20C15.5228 20 20 15.5228 20 10C20 4.47715 15.5228 0 10 0C4.47715 0 0 4.47715 0 10C0 15.5228 4.47715 20 10 20Z" fill="#F0F0F0"/>
<path d="M0 10C0 4.47719 4.47719 0 10 0C15.5228 0 20 4.47719 20 10" fill="#D80027"/>
<path d="M6.08697 5.21734C6.08697 3.76039 7.11091 2.54328 8.47826 2.24465C8.2681 2.19879 8.05009 2.1739 7.82607 2.1739C6.14517 2.1739 4.78259 3.53648 4.78259 5.21738C4.78259 6.89828 6.14517 8.26086 7.82607 8.26086C8.05001 8.26086 8.26806 8.23597 8.47826 8.19008C7.11091 7.89144 6.08697 6.67433 6.08697 5.21734Z" fill="#F0F0F0"/>
<path d="M10 2.39128L10.2159 3.05554H10.9144L10.3492 3.46613L10.5651 4.13038L10 3.71987L9.43494 4.13038L9.6508 3.46613L9.08572 3.05554H9.78416L10 2.39128Z" fill="#F0F0F0"/>
<path d="M8.30567 3.69562L8.52149 4.35991H9.21997L8.65489 4.77046L8.87075 5.43472L8.30567 5.02421L7.74052 5.43472L7.95641 4.77046L7.3913 4.35991H8.08977L8.30567 3.69562Z" fill="#F0F0F0"/>
<path d="M11.6944 3.69562L11.9103 4.35991H12.6087L12.0436 4.77046L12.2595 5.43472L11.6944 5.02421L11.1293 5.43472L11.3452 4.77046L10.7801 4.35991H11.4785L11.6944 3.69562Z" fill="#F0F0F0"/>
<path d="M11.0422 5.65215L11.2581 6.31644H11.9565L11.3914 6.72699L11.6073 7.39125L11.0422 6.98074L10.4771 7.39125L10.693 6.72699L10.1279 6.31644H10.8263L11.0422 5.65215Z" fill="#F0F0F0"/>
<path d="M8.95782 5.65215L9.17364 6.31644H9.87216L9.30704 6.72699L9.52294 7.39125L8.95782 6.98074L8.39271 7.39125L8.60857 6.72699L8.04349 6.31644H8.74196L8.95782 5.65215Z" fill="#F0F0F0"/>
</g>
<defs>
<clipPath id="clip0_79_1891">
<rect width="20" height="20" fill="white"/>
</clipPath>
</defs>
</svg>
