<?xml version="1.0" encoding="UTF-8"?>
<svg xmlns="http://www.w3.org/2000/svg" xmlns:xlink="http://www.w3.org/1999/xlink" width="20px" height="20px" viewBox="0 0 20 20" version="1.1">
<g id="surface1">
<path style=" stroke:none;fill-rule:nonzero;fill:rgb(84.705882%,0%,15.294118%);fill-opacity:1;" d="M 10 20 C 15.523438 20 20 15.523438 20 10 C 20 4.476562 15.523438 0 10 0 C 4.476562 0 0 4.476562 0 10 C 0 15.523438 4.476562 20 10 20 Z M 10 20 "/>
<path style=" stroke:none;fill-rule:nonzero;fill:rgb(94.117647%,94.117647%,94.117647%);fill-opacity:1;" d="M 9.589844 8.171875 L 10.410156 9.300781 L 11.738281 8.871094 L 10.917969 10 L 11.738281 11.132812 L 10.410156 10.699219 L 9.589844 11.828125 L 9.589844 10.433594 L 8.261719 10 L 9.589844 9.570312 Z M 9.589844 8.171875 "/>
<path style=" stroke:none;fill-rule:nonzero;fill:rgb(94.117647%,94.117647%,94.117647%);fill-opacity:1;" d="M 7.351562 12.824219 C 5.789062 12.824219 4.523438 11.5625 4.523438 10 C 4.523438 8.4375 5.789062 7.175781 7.351562 7.175781 C 7.839844 7.175781 8.296875 7.296875 8.695312 7.511719 C 8.070312 6.898438 7.210938 6.523438 6.265625 6.523438 C 4.34375 6.523438 2.785156 8.078125 2.785156 10 C 2.785156 11.921875 4.34375 13.476562 6.265625 13.476562 C 7.210938 13.476562 8.070312 13.101562 8.695312 12.488281 C 8.296875 12.703125 7.839844 12.824219 7.351562 12.824219 Z M 7.351562 12.824219 "/>
</g>
</svg>
