<svg width="20" height="20" viewBox="0 0 20 20" fill="none" xmlns="http://www.w3.org/2000/svg">
<path d="M10 20C15.5228 20 20 15.5228 20 10C20 4.47715 15.5228 0 10 0C4.47715 0 0 4.47715 0 10C0 15.5228 4.47715 20 10 20Z" fill="#B22234"/>
<path d="M0.0386353 9.23068H19.9613C19.9216 8.71235 19.8416 8.1979 19.722 7.69201H0.277969C0.158319 8.1979 0.0782983 8.71235 0.0386353 9.23068Z" fill="white"/>
<path d="M4.68734 18.4613H15.3127C16.0038 18.0276 16.6394 17.5111 17.2053 16.9233H2.79468C3.3606 17.5111 3.99619 18.0276 4.68734 18.4613Z" fill="white"/>
<path d="M0.277969 12.308H19.722C19.8416 11.8021 19.9216 11.2877 19.9613 10.7693H0.0386353C0.0782983 11.2877 0.158319 11.8021 0.277969 12.308Z" fill="white"/>
<path d="M1.58268 15.3847H18.4173C18.7333 14.8967 19.0057 14.3818 19.2313 13.846H0.768677C0.994343 14.3818 1.26673 14.8967 1.58268 15.3847Z" fill="white"/>
<path d="M0.768677 6.154H19.2313C19.0057 5.61823 18.7333 5.10335 18.4173 4.61534H1.58268C1.26673 5.10335 0.994343 5.61823 0.768677 6.154Z" fill="white"/>
<path d="M2.79468 3.07667H17.2053C16.6393 2.48869 16.0035 1.97218 15.312 1.53867H4.68801C3.99652 1.97218 3.36069 2.48869 2.79468 3.07667Z" fill="white"/>
<path d="M0 10C0 10.26 0.0193333 10.5153 0.0386667 10.7707H10V0C7.34784 0 4.8043 1.05357 2.92893 2.92893C1.05357 4.8043 0 7.34784 0 10Z" fill="#3C3B6E"/>
<path d="M0.0933271 8.70334V8.68401L0.0853271 8.68934L0.0933271 8.70334Z" fill="white"/>
<path d="M7.46665 5.84734L7.32798 6.272H6.88132L7.24265 6.53534L7.10465 6.96L7.46665 6.69734L7.82798 6.96L7.68998 6.53534L8.05132 6.272H7.60465L7.46665 5.84734Z" fill="white"/>
<path d="M7.46665 3.69267L7.32798 4.118H6.88132L7.24265 4.38067L7.10465 4.806L7.46665 4.54334L7.82798 4.806L7.68998 4.38067L8.05132 4.118H7.60465L7.46665 3.69267Z" fill="white"/>
<path d="M7.60465 8.42668L7.46665 8.00134L7.32798 8.42668H6.88132L7.24265 8.68934L7.10465 9.11468L7.46665 8.85134L7.82798 9.11468L7.68998 8.68934L8.05132 8.42668H7.60465Z" fill="white"/>
<path d="M7.46665 1.53867L7.32798 1.96401H6.88132L7.24265 2.22667L7.10465 2.65201L7.46665 2.38934L7.82798 2.65201L7.68998 2.22667L8.05132 1.96401H7.60465L7.46665 1.53867Z" fill="white"/>
<path d="M8.87131 9.50334L8.73331 9.078L8.59531 9.50334H8.14798L8.50931 9.766L8.37131 10.1913L8.73331 9.92867L9.09465 10.1913L8.95665 9.766L9.31865 9.50334H8.87131Z" fill="white"/>
<path d="M8.73331 6.92401L8.59531 7.34934H8.14798L8.50931 7.61201L8.37131 8.03734L8.73331 7.77468L9.09465 8.03734L8.95665 7.61201L9.31865 7.34934H8.87131L8.73331 6.92401Z" fill="white"/>
<path d="M8.73331 2.61601L8.59531 3.04134H8.14798L8.50931 3.30401L8.37131 3.72934L8.73331 3.46601L9.09465 3.72934L8.95665 3.30401L9.31865 3.04134H8.87131L8.73331 2.61601Z" fill="white"/>
<path d="M8.73331 4.77L8.59531 5.19534H8.14798L8.50931 5.458L8.37131 5.88334L8.73331 5.62067L9.09465 5.88334L8.95665 5.458L9.31865 5.19534H8.87131L8.73331 4.77Z" fill="white"/>
<path d="M8.73331 0.461342L8.59531 0.886675H8.14798L8.50931 1.15001L8.37131 1.57468L8.73331 1.31201L9.09465 1.57468L8.95665 1.15001L9.31865 0.886675H8.87131L8.73331 0.461342Z" fill="white"/>
<path d="M6.33729 9.50334L6.19929 9.078L6.06129 9.50334H5.61395L5.97595 9.766L5.83795 10.1913L6.19929 9.92867L6.56129 10.1913L6.42329 9.766L6.78462 9.50334H6.33729Z" fill="white"/>
<path d="M6.19929 6.92401L6.06129 7.34934H5.61395L5.97595 7.61201L5.83795 8.03734L6.19929 7.77468L6.56129 8.03734L6.42329 7.61201L6.78462 7.34934H6.33729L6.19929 6.92401Z" fill="white"/>
<path d="M6.19929 2.61601L6.06129 3.04134H5.61395L5.97595 3.30401L5.83795 3.72934L6.19929 3.46601L6.56129 3.72934L6.42329 3.30401L6.78462 3.04134H6.33729L6.19929 2.61601Z" fill="white"/>
<path d="M6.19929 4.77L6.06129 5.19534H5.61395L5.97595 5.458L5.83795 5.88334L6.19929 5.62067L6.56129 5.88334L6.42329 5.458L6.78462 5.19534H6.33729L6.19929 4.77Z" fill="white"/>
<path d="M5.83799 1.57467L6.19999 1.312L6.56199 1.57467L6.42399 1.15L6.78533 0.88667H6.33733L6.28399 0.721336C6.21733 0.74667 6.15466 0.76667 6.09133 0.793336L6.06133 0.88667H5.89799C5.83999 0.91267 5.78466 0.942003 5.72733 0.969336L5.97599 1.15L5.83799 1.57467Z" fill="white"/>
<path d="M4.93265 5.84734L4.79465 6.272H4.34732L4.70932 6.53534L4.57065 6.96L4.93265 6.69734L5.29465 6.96L5.15599 6.53534L5.51799 6.272H5.07065L4.93265 5.84734Z" fill="white"/>
<path d="M4.93265 3.69267L4.79465 4.118H4.34732L4.70932 4.38067L4.57065 4.806L4.93265 4.54334L5.29465 4.806L5.15599 4.38067L5.51799 4.118H5.07065L4.93265 3.69267Z" fill="white"/>
<path d="M5.07065 8.42668L4.93265 8.00134L4.79465 8.42668H4.34732L4.70932 8.68934L4.57065 9.11468L4.93265 8.85134L5.29465 9.11468L5.15599 8.68934L5.51799 8.42668H5.07065Z" fill="white"/>
<path d="M4.93265 1.53867L4.79465 1.96401H4.34732L4.70932 2.22667L4.57065 2.65201L4.93265 2.38934L5.29465 2.65201L5.15599 2.22667L5.51799 1.96401H5.07065L4.93265 1.53867Z" fill="white"/>
<path d="M3.80396 9.50334L3.66596 9.078L3.52796 9.50334H3.08063L3.44196 9.766L3.30396 10.1913L3.66596 9.92867L4.02729 10.1913L3.88929 9.766L4.25129 9.50334H3.80396Z" fill="white"/>
<path d="M3.66596 6.92401L3.52796 7.34934H3.08063L3.44196 7.61201L3.30396 8.03734L3.66596 7.77468L4.02729 8.03734L3.88929 7.61201L4.25129 7.34934H3.80396L3.66596 6.92401Z" fill="white"/>
<path d="M3.66596 2.61601L3.52796 3.04134H3.08063L3.44196 3.30401L3.30396 3.72934L3.66596 3.46601L4.02729 3.72934L3.88929 3.30401L4.25129 3.04134H3.80396L3.66596 2.61601Z" fill="white"/>
<path d="M3.66596 4.77L3.52796 5.19534H3.08063L3.44196 5.458L3.30396 5.88334L3.66596 5.62067L4.02729 5.88334L3.88929 5.458L4.25129 5.19534H3.80396L3.66596 4.77Z" fill="white"/>
<path d="M2.3993 5.84734L2.26063 6.272H1.81396L2.1753 6.53534L2.0373 6.96L2.3993 6.69734L2.76063 6.96L2.62263 6.53534L2.98396 6.272H2.5373L2.3993 5.84734Z" fill="white"/>
<path d="M2.03728 4.806L2.39994 4.54334L2.76128 4.806L2.62328 4.38067L2.98461 4.118H2.53794L2.39994 3.69267L2.26128 4.118H1.92794C1.91528 4.136 1.90128 4.15267 1.88861 4.17067L2.17794 4.38067L2.03728 4.806Z" fill="white"/>
<path d="M2.5373 8.42668L2.3993 8.00134L2.26063 8.42668H1.81396L2.1753 8.68934L2.0373 9.11468L2.3993 8.85134L2.76063 9.11468L2.62263 8.68934L2.98396 8.42668H2.5373Z" fill="white"/>
<path d="M1.27003 9.50334L1.13203 9.078L0.994025 9.50334H0.546692L0.908692 9.766L0.770692 10.1913L1.13203 9.92867L1.49403 10.1913L1.35603 9.766L1.71736 9.50334H1.27003Z" fill="white"/>
<path d="M1.13203 6.92401L0.994025 7.34934H0.546692L0.908692 7.61201L0.770692 8.03734L1.13203 7.77468L1.49403 8.03734L1.35603 7.61201L1.71736 7.34934H1.27003L1.13203 6.92401Z" fill="white"/>
<path d="M1.49397 5.88334L1.35597 5.45801L1.7173 5.19534H1.26997L1.25597 5.15201C1.1493 5.34467 1.05597 5.54467 0.960632 5.74534L1.1333 5.62067L1.49397 5.88334Z" fill="white"/>
<path d="M0.0933306 8.70334C0.0813306 8.79867 0.0606639 8.89067 0.0513306 8.98667L0.227331 9.11467L0.0933306 8.70334Z" fill="white"/>
<path d="M0.450661 8.42667H0.133327C0.119327 8.512 0.105327 8.59733 0.0939941 8.684L0.450661 8.42667Z" fill="white"/>
</svg>
